<svg viewBox="0 0 330 200" xmlns="http://www.w3.org/2000/svg"><g><g><g><g><g><line x1="51.52000045776367" y1="177.95999908447266" x2="46.52000045776367" y2="177.95999908447266" style="visibility: inherit;" fill="rgb(0, 0, 0)" stroke="rgb(204, 204, 204)" stroke-width="1px"></line><line x1="51.52000045776367" y1="160.16399917602538" x2="46.52000045776367" y2="160.16399917602538" style="visibility: inherit;" fill="rgb(0, 0, 0)" stroke="rgb(204, 204, 204)" stroke-width="1px"></line><line x1="51.52000045776367" y1="142.3679992675781" x2="46.52000045776367" y2="142.3679992675781" style="visibility: inherit;" fill="rgb(0, 0, 0)" stroke="rgb(204, 204, 204)" stroke-width="1px"></line><line x1="51.52000045776367" y1="124.57199935913084" x2="46.52000045776367" y2="124.57199935913084" style="visibility: inherit;" fill="rgb(0, 0, 0)" stroke="rgb(204, 204, 204)" stroke-width="1px"></line><line x1="51.52000045776367" y1="106.77599945068359" x2="46.52000045776367" y2="106.77599945068359" style="visibility: inherit;" fill="rgb(0, 0, 0)" stroke="rgb(204, 204, 204)" stroke-width="1px"></line><line x1="51.52000045776367" y1="88.97999954223633" x2="46.52000045776367" y2="88.97999954223633" style="visibility: inherit;" fill="rgb(0, 0, 0)" stroke="rgb(204, 204, 204)" stroke-width="1px"></line><line x1="51.52000045776367" y1="71.18399963378907" x2="46.52000045776367" y2="71.18399963378907" style="visibility: inherit;" fill="rgb(0, 0, 0)" stroke="rgb(204, 204, 204)" stroke-width="1px"></line><line x1="51.52000045776367" y1="53.3879997253418" x2="46.52000045776367" y2="53.3879997253418" style="visibility: inherit;" fill="rgb(0, 0, 0)" stroke="rgb(204, 204, 204)" stroke-width="1px"></line><line x1="51.52000045776367" y1="35.59199981689454" x2="46.52000045776367" y2="35.59199981689454" style="visibility: inherit;" fill="rgb(0, 0, 0)" stroke="rgb(204, 204, 204)" stroke-width="1px"></line><line x1="51.52000045776367" y1="17.79599990844727" x2="46.52000045776367" y2="17.79599990844727" style="visibility: inherit;" fill="rgb(0, 0, 0)" stroke="rgb(204, 204, 204)" stroke-width="1px"></line><line x1="51.52000045776367" y1="0" x2="46.52000045776367" y2="0" style="visibility: inherit;" fill="rgb(0, 0, 0)" stroke="rgb(204, 204, 204)" stroke-width="1px"></line></g><g transform="translate(41.52000045776367, 0)"><text style="text-anchor: end; visibility: hidden; font-family: &quot;Helvetica Neue&quot;, sans-serif; font-size: 12px; font-weight: 200;" x="0" y="177.95999908447266" dx="0em" dy="0.3em" fill="rgb(50, 49, 63)" stroke="none" stroke-width="1px">-0.1</text><text style="text-anchor: end; visibility: inherit; font-family: &quot;Helvetica Neue&quot;, sans-serif; font-size: 12px; font-weight: 200;" x="0" y="160.16399917602538" dx="0em" dy="0.3em" fill="rgb(50, 49, 63)" stroke="none" stroke-width="1px">0</text><text style="text-anchor: end; visibility: hidden; font-family: &quot;Helvetica Neue&quot;, sans-serif; font-size: 12px; font-weight: 200;" x="0" y="142.3679992675781" dx="0em" dy="0.3em" fill="rgb(50, 49, 63)" stroke="none" stroke-width="1px">0.1</text><text style="text-anchor: end; visibility: inherit; font-family: &quot;Helvetica Neue&quot;, sans-serif; font-size: 12px; font-weight: 200;" x="0" y="124.57199935913084" dx="0em" dy="0.3em" fill="rgb(50, 49, 63)" stroke="none" stroke-width="1px">0.2</text><text style="text-anchor: end; visibility: hidden; font-family: &quot;Helvetica Neue&quot;, sans-serif; font-size: 12px; font-weight: 200;" x="0" y="106.77599945068359" dx="0em" dy="0.3em" fill="rgb(50, 49, 63)" stroke="none" stroke-width="1px">0.3</text><text style="text-anchor: end; visibility: inherit; font-family: &quot;Helvetica Neue&quot;, sans-serif; font-size: 12px; font-weight: 200;" x="0" y="88.97999954223633" dx="0em" dy="0.3em" fill="rgb(50, 49, 63)" stroke="none" stroke-width="1px">0.4</text><text style="text-anchor: end; visibility: hidden; font-family: &quot;Helvetica Neue&quot;, sans-serif; font-size: 12px; font-weight: 200;" x="0" y="71.18399963378907" dx="0em" dy="0.3em" fill="rgb(50, 49, 63)" stroke="none" stroke-width="1px">0.5</text><text style="text-anchor: end; visibility: inherit; font-family: &quot;Helvetica Neue&quot;, sans-serif; font-size: 12px; font-weight: 200;" x="0" y="53.3879997253418" dx="0em" dy="0.3em" fill="rgb(50, 49, 63)" stroke="none" stroke-width="1px">0.6</text><text style="text-anchor: end; visibility: hidden; font-family: &quot;Helvetica Neue&quot;, sans-serif; font-size: 12px; font-weight: 200;" x="0" y="35.59199981689454" dx="0em" dy="0.3em" fill="rgb(50, 49, 63)" stroke="none" stroke-width="1px">0.7</text><text style="text-anchor: end; visibility: inherit; font-family: &quot;Helvetica Neue&quot;, sans-serif; font-size: 12px; font-weight: 200;" x="0" y="17.79599990844727" dx="0em" dy="0.3em" fill="rgb(50, 49, 63)" stroke="none" stroke-width="1px">0.8</text><text style="text-anchor: end; visibility: hidden; font-family: &quot;Helvetica Neue&quot;, sans-serif; font-size: 12px; font-weight: 200;" x="0" y="0" dx="0em" dy="0.3em" fill="rgb(50, 49, 63)" stroke="none" stroke-width="1px">0.9</text></g><line x1="51.52000045776367" y1="0" x2="51.52000045776367" y2="177.95999908447266" fill="rgb(0, 0, 0)" stroke="rgb(204, 204, 204)" stroke-width="1px"></line></g></g><g transform="translate(51, 0)" clip-path="url(#clip_0)"><clipPath id="clip_0"><rect width="278" height="177"></rect></clipPath><g><g><g><line x1="0" y1="0" x2="0" y2="177.95999908447266" fill="rgb(0, 0, 0)" stroke="rgb(60, 60, 60)" stroke-width="1px" opacity="0.25"></line><line x1="25.316363594748758" y1="0" x2="25.316363594748758" y2="177.95999908447266" fill="rgb(0, 0, 0)" stroke="rgb(60, 60, 60)" stroke-width="1px" opacity="0.25"></line><line x1="50.632727189497515" y1="0" x2="50.632727189497515" y2="177.95999908447266" fill="rgb(0, 0, 0)" stroke="rgb(60, 60, 60)" stroke-width="1px" opacity="0.25"></line><line x1="75.94909078424627" y1="0" x2="75.94909078424627" y2="177.95999908447266" fill="rgb(0, 0, 0)" stroke="rgb(60, 60, 60)" stroke-width="1px" opacity="0.25"></line><line x1="101.26545437899503" y1="0" x2="101.26545437899503" y2="177.95999908447266" fill="rgb(0, 0, 0)" stroke="rgb(60, 60, 60)" stroke-width="1px" opacity="0.25"></line><line x1="126.58181797374378" y1="0" x2="126.58181797374378" y2="177.95999908447266" fill="rgb(0, 0, 0)" stroke="rgb(60, 60, 60)" stroke-width="1px" opacity="0.25"></line><line x1="151.89818156849253" y1="0" x2="151.89818156849253" y2="177.95999908447266" fill="rgb(0, 0, 0)" stroke="rgb(60, 60, 60)" stroke-width="1px" opacity="0.25"></line><line x1="177.2145451632413" y1="0" x2="177.2145451632413" y2="177.95999908447266" fill="rgb(0, 0, 0)" stroke="rgb(60, 60, 60)" stroke-width="1px" opacity="0.25"></line><line x1="202.53090875799006" y1="0" x2="202.53090875799006" y2="177.95999908447266" fill="rgb(0, 0, 0)" stroke="rgb(60, 60, 60)" stroke-width="1px" opacity="0.25"></line><line x1="227.84727235273883" y1="0" x2="227.84727235273883" y2="177.95999908447266" fill="rgb(0, 0, 0)" stroke="rgb(60, 60, 60)" stroke-width="1px" opacity="0.25"></line><line x1="253.16363594748756" y1="0" x2="253.16363594748756" y2="177.95999908447266" fill="rgb(0, 0, 0)" stroke="rgb(60, 60, 60)" stroke-width="1px" opacity="0.25"></line><line x1="278.4799995422363" y1="0" x2="278.4799995422363" y2="177.95999908447266" fill="rgb(0, 0, 0)" stroke="rgb(60, 60, 60)" stroke-width="1px" opacity="0.25"></line></g><g><line x1="0" y1="177.95999908447266" x2="278.4799995422363" y2="177.95999908447266" fill="rgb(0, 0, 0)" stroke="rgb(60, 60, 60)" stroke-width="1px" opacity="0.25"></line><line x1="0" y1="160.16399917602538" x2="278.4799995422363" y2="160.16399917602538" fill="rgb(0, 0, 0)" stroke="rgb(60, 60, 60)" stroke-width="1px" opacity="0.25"></line><line x1="0" y1="142.3679992675781" x2="278.4799995422363" y2="142.3679992675781" fill="rgb(0, 0, 0)" stroke="rgb(60, 60, 60)" stroke-width="1px" opacity="0.25"></line><line x1="0" y1="124.57199935913084" x2="278.4799995422363" y2="124.57199935913084" fill="rgb(0, 0, 0)" stroke="rgb(60, 60, 60)" stroke-width="1px" opacity="0.25"></line><line x1="0" y1="106.77599945068359" x2="278.4799995422363" y2="106.77599945068359" fill="rgb(0, 0, 0)" stroke="rgb(60, 60, 60)" stroke-width="1px" opacity="0.25"></line><line x1="0" y1="88.97999954223633" x2="278.4799995422363" y2="88.97999954223633" fill="rgb(0, 0, 0)" stroke="rgb(60, 60, 60)" stroke-width="1px" opacity="0.25"></line><line x1="0" y1="71.18399963378907" x2="278.4799995422363" y2="71.18399963378907" fill="rgb(0, 0, 0)" stroke="rgb(60, 60, 60)" stroke-width="1px" opacity="0.25"></line><line x1="0" y1="53.3879997253418" x2="278.4799995422363" y2="53.3879997253418" fill="rgb(0, 0, 0)" stroke="rgb(60, 60, 60)" stroke-width="1px" opacity="0.25"></line><line x1="0" y1="35.59199981689454" x2="278.4799995422363" y2="35.59199981689454" fill="rgb(0, 0, 0)" stroke="rgb(60, 60, 60)" stroke-width="1px" opacity="0.25"></line><line x1="0" y1="17.79599990844727" x2="278.4799995422363" y2="17.79599990844727" fill="rgb(0, 0, 0)" stroke="rgb(60, 60, 60)" stroke-width="1px" opacity="0.25"></line><line x1="0" y1="0" x2="278.4799995422363" y2="0" fill="rgb(0, 0, 0)" stroke="rgb(60, 60, 60)" stroke-width="1px" opacity="0.25"></line></g></g></g><g><g><line x1="0" y1="160.16399917602538" x2="278.4799995422363" y2="160.16399917602538" fill="rgb(0, 0, 0)" stroke="rgb(153, 153, 153)" stroke-width="1.5px"></line></g></g><g><g><line x1="25.316363594748758" y1="0" x2="25.316363594748758" y2="177.95999908447266" fill="rgb(0, 0, 0)" stroke="rgb(153, 153, 153)" stroke-width="1.5px"></line></g></g><g><g><g><g><g><path style="fill: none;" stroke="rgb(204, 51, 17)" stroke-width="2px" d="M25.316363594748758,36.64007175097103L37.97454539212313,38.72717157554183L50.632727189497515,41.39538363272962L63.29090898687189,45.0621185860889L75.94909078424627,48.61450999430329L88.60727258162065,55.25213430390555L101.26545437899503,65.53729643720702L113.92363617636941,80.27446016341165L126.58181797374378,97.78927530992567L139.23999977111816,112.71289694516886L151.89818156849253,128.5581151971387L164.55636336586693,137.8019850759285L177.2145451632413,145.0730241309564L189.87272696061567,149.22809808008384L202.53090875799006,152.60229132913076L215.18909055536443,153.82313467056892L227.84727235273883,155.1751255113107L240.5054541501132,156.204353365278L253.16363594748756,157.28515946655187L265.82181774486196,157.86305749188816" fill="none"></path></g><g><path style="fill: none;" stroke="rgb(255, 112, 67)" stroke-width="2px" d="M25.316363594748758,37.80142691381579L37.97454539212313,40.59278651840037L50.632727189497515,42.94751326969677L63.29090898687189,46.652619159461636L75.94909078424627,51.454789617674194L88.60727258162065,59.214624618451296L101.26545437899503,70.37190210171313L113.92363617636941,84.31204905721928L126.58181797374378,101.2415631991065L139.23999977111816,118.2022191183897L151.89818156849253,130.46760022892434L164.55636336586693,136.14275910713337L177.2145451632413,142.69160751524993L189.87272696061567,148.19949312282097L202.53090875799006,151.24057231007177L215.18909055536443,152.45244986409426L227.84727235273883,153.90496052678478L240.5054541501132,154.0449216725957L253.16363594748756,153.583949960469L265.82181774486196,153.37623392304548" fill="none"></path></g><g><path style="fill: none;" stroke="rgb(0, 153, 136)" stroke-width="2px" d="M25.316363594748758,37.00772938429154L37.97454539212313,39.50578345194219L50.632727189497515,42.16099214251287L63.29090898687189,44.793385988732524L75.94909078424627,47.73781307977313L88.60727258162065,52.16468661284287L101.26545437899503,58.395462311476834L113.92363617636941,66.83196956834078L126.58181797374378,74.74133128680799L139.23999977111816,85.13370860820207L151.89818156849253,94.62991505020878L164.55636336586693,103.6663356157086L177.2145451632413,111.62167484529314L189.87272696061567,118.24391014170877L202.53090875799006,125.26278505704758L215.18909055536443,132.7996264183094L227.84727235273883,136.66727732996577L240.5054541501132,139.91283746089866L253.16363594748756,144.37434766214608L265.82181774486196,147.12801640337202" fill="none"></path></g><g><path style="fill: none;" stroke="rgb(187, 187, 187)" stroke-width="2px" d="M25.316363594748758,36.74670636012169L37.97454539212313,36.768084836281275L50.632727189497515,37.89736616475679L63.29090898687189,40.552327549270444L75.94909078424627,44.7109976094475L88.60727258162065,49.252419380171716L101.26545437899503,54.76173682129979L113.92363617636941,61.87196476754842L126.58181797374378,70.75695528847186L139.23999977111816,81.75584412085814L151.89818156849253,91.7142018239889L164.55636336586693,104.11474075543914L177.2145451632413,115.80347735013048L189.87272696061567,124.36231716872751L202.53090875799006,133.92817055747278L215.18909055536443,140.60507085136112L227.84727235273883,145.01777908072683L240.5054541501132,149.5496458450989L253.16363594748756,151.32673395205262L265.82181774486196,153.10556757617536" fill="none"></path></g><g><path style="fill: none;" stroke="rgb(238, 51, 119)" stroke-width="2px" d="M25.316363594748758,36.91716474757331L37.97454539212313,38.80529118855722L50.632727189497515,40.828308373418L63.29090898687189,43.33989891611225L75.94909078424627,46.98930620016131L88.60727258162065,50.17094662745846L101.26545437899503,56.19637106917972L113.92363617636941,62.968521146641194L126.58181797374378,71.03555652548657L139.23999977111816,82.36591738874371L151.89818156849253,91.39581940197237L164.55636336586693,102.46364841152099L177.2145451632413,111.57474750282994L189.87272696061567,122.55964258558473L202.53090875799006,131.68656821789142L215.18909055536443,138.22660768391015L227.84727235273883,142.13186197701083L240.5054541501132,144.4896771556863L253.16363594748756,147.73205778774144L265.82181774486196,150.32514493667236" fill="none"></path></g><g><path style="fill: none;" stroke="rgb(204, 51, 17)" stroke-width="2px" d="M25.316363594748758,37.28550124441571L37.97454539212313,38.95420013912724L50.632727189497515,41.32894429565425L63.29090898687189,44.24823226281569L75.94909078424627,46.66775126224556L88.60727258162065,49.97289022730098L101.26545437899503,55.102696470532905L113.92363617636941,60.954061205911074L126.58181797374378,67.85323279305689L139.23999977111816,74.81145333528136L151.89818156849253,81.0655094282729L164.55636336586693,88.41457591436787L177.2145451632413,94.25447058901553L189.87272696061567,99.66733822678415L202.53090875799006,105.97297110487801L215.18909055536443,111.82493910745956L227.84727235273883,116.54029817698523L240.5054541501132,121.86374053211574L253.16363594748756,125.76682501530654L265.82181774486196,130.35048107887476" fill="none"></path></g><g><path style="fill: none;" stroke="rgb(0, 153, 136)" stroke-width="2px" d="M25.316363594748758,36.7363006552001L37.97454539212313,38.297749370349635L50.632727189497515,40.62683820326532L63.29090898687189,42.60391532106112L75.94909078424627,48.45215053459671L88.60727258162065,58.6492344362689L101.26545437899503,74.13250599602608L113.92363617636941,96.3723688465144L126.58181797374378,117.82464861706205L139.23999977111816,135.41477956775918L151.89818156849253,143.593085053174L164.55636336586693,150.55787225240158L177.2145451632413,152.20137704359303L189.87272696061567,152.4228361367007L202.53090875799006,155.31319624434892L215.18909055536443,157.12319390118225L227.84727235273883,158.05176331327L240.5054541501132,158.47258113700065L253.16363594748756,158.75448002190757L265.82181774486196,158.93274515592287" fill="none"></path></g><g><path style="fill: none;" stroke="rgb(51, 187, 238)" stroke-width="2px" d="M25.316363594748758,36.128802661041476L37.97454539212313,37.006237042916894L50.632727189497515,39.03903560159094L63.29090898687189,41.55600093165114L75.94909078424627,45.44699123921879L88.60727258162065,52.81057185482186L101.26545437899503,63.00307833483623L113.92363617636941,77.33810925461282L126.58181797374378,94.21011664893022L139.23999977111816,111.76126081162147L151.89818156849253,127.70991885948732L164.55636336586693,138.88104385917808L177.2145451632413,145.4810165594714L189.87272696061567,149.41900086963082L202.53090875799006,150.77233181582378L215.18909055536443,153.322245732973L227.84727235273883,154.401891656046L240.5054541501132,154.6195299606308L253.16363594748756,155.66599620344914L265.82181774486196,156.23924781478175" fill="none"></path></g><g><path style="fill: none;" stroke="rgb(0, 119, 187)" stroke-width="2px" d="M25.316363594748758,37.09633168114178L37.97454539212313,39.22568903059005L50.632727189497515,41.36663528134477L63.29090898687189,42.9561526126723L75.94909078424627,45.62403433553325L88.60727258162065,50.096791600432596L101.26545437899503,55.90766024809082L113.92363617636941,62.50104834800604L126.58181797374378,72.59397880466655L139.23999977111816,82.22134963509683L151.89818156849253,91.61551072753333L164.55636336586693,102.63925659470023L177.2145451632413,113.97232126100278L189.87272696061567,123.89632648445881L202.53090875799006,131.9087970259636L215.18909055536443,139.13669180954446L227.84727235273883,142.99653060249992L240.5054541501132,146.19288029920665L253.16363594748756,148.1744507961612L265.82181774486196,149.6172746194959" fill="none"></path></g><g><path style="fill: none;" stroke="rgb(0, 119, 187)" stroke-width="2px" d="M25.316363594748758,34.0807032372023L37.97454539212313,39.24423883171559L50.632727189497515,43.356241210170055L63.29090898687189,48.444291045017565L75.94909078424627,58.8566856253685L88.60727258162065,78.69427862473444L101.26545437899503,103.99996514383096L113.92363617636941,127.37505996484958L126.58181797374378,141.55960192144173L139.23999977111816,148.96728455569902L151.89818156849253,153.3846148992235L164.55636336586693,155.60319151051576L177.2145451632413,156.60834018284996L189.87272696061567,157.3870219696627L202.53090875799006,157.79230985165208L215.18909055536443,158.2188371497859L227.84727235273883,158.23094446439185L240.5054541501132,158.48405074512888L253.16363594748756,158.74811664410643L265.82181774486196,158.81533353868824" fill="none"></path></g><g><path style="fill: none;" stroke="rgb(187, 187, 187)" stroke-width="2px" d="M25.316363594748758,36.376046877165294L37.97454539212313,39.754345537818324L50.632727189497515,46.7052988220415L63.29090898687189,59.39948288317582L75.94909078424627,78.47200442565027L88.60727258162065,103.66408065547935L101.26545437899503,125.18970634888505L113.92363617636941,139.00104654253678L126.58181797374378,146.5880916335709L139.23999977111816,151.22726082115315L151.89818156849253,153.30334575554477L164.55636336586693,154.78081947853013L177.2145451632413,155.14236530523195L189.87272696061567,155.5526260000952L202.53090875799006,156.0132308638698L215.18909055536443,156.48859670554114L227.84727235273883,156.6435142154053L240.5054541501132,156.5142203265193L253.16363594748756,156.28305573245598L265.82181774486196,154.934766820348" fill="none"></path></g><g><path style="fill: none;" stroke="rgb(238, 51, 119)" stroke-width="2px" d="M25.316363594748758,37.66391462166129L37.97454539212313,42.03488868281832L50.632727189497515,47.77769050349826L63.29090898687189,54.112319401344465L75.94909078424627,62.62271988967761L88.60727258162065,70.99372421071422L101.26545437899503,78.95579601996555L113.92363617636941,86.5935692738984L126.58181797374378,95.27619710141133L139.23999977111816,103.06638985929415L151.89818156849253,110.38600837833212L164.55636336586693,117.21465788545758L177.2145451632413,123.63595238152092L189.87272696061567,129.62452418156437L202.53090875799006,134.50926120473287L215.18909055536443,138.94501673580072L227.84727235273883,141.31039654113653L240.5054541501132,141.14553227538428L253.16363594748756,144.19397272948737L265.82181774486196,146.09313982083242" fill="none"></path></g><g><path style="fill: none;" stroke="rgb(0, 153, 136)" stroke-width="2px" d="M25.316363594748758,37.32883183014937L37.97454539212313,41.36791026682778L50.632727189497515,49.565136357198696L63.29090898687189,61.150351988961404L75.94909078424627,75.30437956138502L88.60727258162065,89.74774825466922L101.26545437899503,106.1415462753553L113.92363617636941,121.64578688253204L126.58181797374378,132.1307297196426L139.23999977111816,140.3173387234879L151.89818156849253,146.47815816931075L164.55636336586693,149.0224496051873L177.2145451632413,147.33224621162316L189.87272696061567,150.74228162953455L202.53090875799006,153.31110750887973L215.18909055536443,154.993452125194L227.84727235273883,156.13153400089897L240.5054541501132,156.69456513802004L253.16363594748756,157.15506960911875L265.82181774486196,157.3591652772118" fill="none"></path></g><g><path style="fill: none;" stroke="rgb(51, 187, 238)" stroke-width="2px" d="M25.316363594748758,36.15287049434127L37.97454539212313,36.901892390581764L50.632727189497515,38.46019851865378L63.29090898687189,41.844241947046356L75.94909078424627,49.7205683602223L88.60727258162065,62.89522319431961L101.26545437899503,80.71197423326835L113.92363617636941,101.5346674607705L126.58181797374378,119.8988271469778L139.23999977111816,134.89347667586975L151.89818156849253,143.90891910010149L164.55636336586693,149.2571746735419L177.2145451632413,152.00412090330326L189.87272696061567,154.08180134657982L202.53090875799006,155.00304211106874L215.18909055536443,155.85362432998997L227.84727235273883,156.29835241114225L240.5054541501132,156.47315351506722L253.16363594748756,157.2310930413048L265.82181774486196,157.18867494764015" fill="none"></path></g><g><path style="fill: none;" stroke="rgb(0, 119, 187)" stroke-width="2px" d="M25.316363594748758,37.366880009103255L37.97454539212313,41.0900892242818L50.632727189497515,47.173457989068L63.29090898687189,54.01435499417322L75.94909078424627,61.98758211691346L88.60727258162065,69.58818477808487L101.26545437899503,77.92342077339578L113.92363617636941,86.86914923288239L126.58181797374378,95.89538421320994L139.23999977111816,104.84122469383236L151.89818156849253,112.84168766864963L164.55636336586693,121.47035882640195L177.2145451632413,127.72509503857039L189.87272696061567,133.64827234071143L202.53090875799006,138.68288360948947L215.18909055536443,141.5743871302847L227.84727235273883,145.07985056547204L240.5054541501132,146.9017278463327L253.16363594748756,147.92455046786205L265.82181774486196,149.0117716516475" fill="none"></path></g><g><path style="fill: none;" stroke="rgb(238, 51, 119)" stroke-width="2px" d="M25.316363594748758,35.781510933377916L37.97454539212313,37.48527410697881L50.632727189497515,40.27074140076306L63.29090898687189,46.22731188824346L75.94909078424627,58.468089154641206L88.60727258162065,79.35967581932229L101.26545437899503,105.89085336400271L113.92363617636941,128.20081397343628L126.58181797374378,142.4337213525259L139.23999977111816,150.14857456306638L151.89818156849253,154.3893304070903L164.55636336586693,156.39074560646233L177.2145451632413,157.56786077151816L189.87272696061567,158.17157651571335L202.53090875799006,158.51608335898595L215.18909055536443,158.6112266480845L227.84727235273883,158.75112671788577L240.5054541501132,158.81409018615702L253.16363594748756,158.89709117483144L265.82181774486196,158.96355758512604" fill="none"></path></g><g><path style="fill: none;" stroke="rgb(204, 51, 17)" stroke-width="2px" d="M25.316363594748758,36.40683970222889L37.97454539212313,39.555841534031L50.632727189497515,46.707897757245576L63.29090898687189,59.48480301081072L75.94909078424627,79.9230527219472L88.60727258162065,106.04615971246311L101.26545437899503,128.1504962881653L113.92363617636941,140.15997832512642L126.58181797374378,147.9026542616065L139.23999977111816,151.82544337602113L151.89818156849253,154.2630096536109L164.55636336586693,155.55170204060053L177.2145451632413,156.123691477722L189.87272696061567,156.40214686903187L202.53090875799006,156.46618763730336L215.18909055536443,156.64025072964273L227.84727235273883,156.7613937029921L240.5054541501132,156.82094402239187L253.16363594748756,156.87919685301466L265.82181774486196,155.75363341366" fill="none"></path></g><g><path style="fill: none;" stroke="rgb(255, 112, 67)" stroke-width="2px" d="M25.316363594748758,36.64830297117405L37.97454539212313,39.671016747503586L50.632727189497515,42.72496549410462L63.29090898687189,46.93927069215249L75.94909078424627,52.95081489695373L88.60727258162065,59.44002023329361L101.26545437899503,67.8574613253874L113.92363617636941,76.20924651738828L126.58181797374378,84.93714923148589L139.23999977111816,93.78364010693791L151.89818156849253,102.89481672234967L164.55636336586693,110.53452203498959L177.2145451632413,119.1275526675484L189.87272696061567,125.66299775194788L202.53090875799006,131.27006280248497L215.18909055536443,136.56840313516392L227.84727235273883,140.08973478822787L240.5054541501132,142.41691802331516L253.16363594748756,145.3763006445795L265.82181774486196,146.52876030006067" fill="none"></path></g><g><path style="fill: none;" stroke="rgb(255, 112, 67)" stroke-width="2px" d="M25.316363594748758,30.41131861443236L37.97454539212313,43.95025240564232L50.632727189497515,63.646008302283974L63.29090898687189,91.55448596024038L75.94909078424627,116.28052981987193L88.60727258162065,133.50838466442266L101.26545437899503,144.03406645761828L113.92363617636941,149.51688892183793L126.58181797374378,152.57841003713776L139.23999977111816,154.87556739947132L151.89818156849253,156.4157197266553L164.55636336586693,157.27453642359407L177.2145451632413,157.95309829381412L189.87272696061567,158.37589282872392L202.53090875799006,158.58196528548947L215.18909055536443,158.76928004142434L227.84727235273883,158.85910677652703L240.5054541501132,158.9007977236837L253.16363594748756,158.77630472399565L265.82181774486196,158.93584797073842" fill="none"></path></g><g><path style="fill: none;" stroke="rgb(0, 153, 136)" stroke-width="2px" d="M25.316363594748758,23.790023253598605L37.97454539212313,49.264758564842396L50.632727189497515,74.46524739243401L63.29090898687189,98.88191031792176L75.94909078424627,118.89221289796436L88.60727258162065,131.3565454433446L101.26545437899503,139.4928625164459L113.92363617636941,143.99185622642082L126.58181797374378,146.6594118763091L139.23999977111816,148.3059793206507L151.89818156849253,150.20506551988544L164.55636336586693,151.21458964092972L177.2145451632413,150.63642812194237L189.87272696061567,150.3117875253698L202.53090875799006,150.60712634309456L215.18909055536443,152.0363533208498L227.84727235273883,152.80068613266795L240.5054541501132,153.55115487808524L253.16363594748756,153.89852825424288L265.82181774486196,152.9265635532938" fill="none"></path></g><g><path style="fill: none;" stroke="rgb(51, 187, 238)" stroke-width="2px" d="M25.316363594748758,31.95721814070484L37.97454539212313,45.54139111316039L50.632727189497515,61.05460316022237L63.29090898687189,77.92842743142785L75.94909078424627,94.08773928790032L88.60727258162065,107.46119650771134L101.26545437899503,118.78596853260098L113.92363617636941,126.87713711631204L126.58181797374378,133.45843312424523L139.23999977111816,139.4305046484665L151.89818156849253,143.065163373212L164.55636336586693,146.05518019132433L177.2145451632413,148.0791088114347L189.87272696061567,149.40877503372857L202.53090875799006,150.35558507279524L215.18909055536443,150.86833433381702L227.84727235273883,151.32363099550915L240.5054541501132,151.9400744695587L253.16363594748756,151.99791719957636L265.82181774486196,151.75780718304105" fill="none"></path></g><g><path style="fill: none;" stroke="rgb(238, 51, 119)" stroke-width="2px" d="M25.316363594748758,37.29798596887312L37.97454539212313,44.972038954655886L50.632727189497515,60.1109536452236L63.29090898687189,82.24234872870504L75.94909078424627,106.07089117609726L88.60727258162065,124.56481414427995L101.26545437899503,136.05467034007887L113.92363617636941,143.49912820679194L126.58181797374378,146.16581843770737L139.23999977111816,148.98830262080585L151.89818156849253,149.94915805411182L164.55636336586693,152.7415994846507L177.2145451632413,154.60115131960532L189.87272696061567,156.12035659016425L202.53090875799006,157.08839703387815L215.18909055536443,157.37220505141727L227.84727235273883,157.98069734227428L240.5054541501132,158.20403193047414L253.16363594748756,157.65619834724L265.82181774486196,158.1615922440254" fill="none"></path></g><g><path style="fill: none;" stroke="rgb(204, 51, 17)" stroke-width="2px" d="M25.316363594748758,24.050515915641967L37.97454539212313,33.4104272285349L50.632727189497515,36.55662984563938L63.29090898687189,38.676000105591044L75.94909078424627,41.61993598772986L88.60727258162065,45.620464473605495L101.26545437899503,52.50420765334904L113.92363617636941,59.64576753322697L126.58181797374378,68.62904014332824L139.23999977111816,82.49389449085518L151.89818156849253,96.58896480121193L164.55636336586693,108.45747052522559L177.2145451632413,118.58183794423186L189.87272696061567,126.73540975448486L202.53090875799006,134.35956551263985L215.18909055536443,139.37519293183485L227.84727235273883,142.37994712554865L240.5054541501132,145.76863763607346L253.16363594748756,147.68748267765508L265.82181774486196,148.4813754511159" fill="none"></path></g><g><path style="fill: none;" stroke="rgb(255, 112, 67)" stroke-width="2px" d="M25.316363594748758,27.422706817215925L37.97454539212313,40.543694381162766L50.632727189497515,52.07786137633629L63.29090898687189,64.19586726221601L75.94909078424627,77.05092194426706L88.60727258162065,88.84403054798264L101.26545437899503,98.56812741962936L113.92363617636941,107.69108773257264L126.58181797374378,115.23766349985992L139.23999977111816,122.15466136248887L151.89818156849253,128.17858068002076L164.55636336586693,131.90432904931208L177.2145451632413,136.33509071483462L189.87272696061567,139.3943919405078L202.53090875799006,142.39751205415084L215.18909055536443,144.30588891850277L227.84727235273883,146.5920283431587L240.5054541501132,147.47303718808917L253.16363594748756,148.53676616267407L265.82181774486196,149.3017852669339" fill="none"></path></g><g><path style="fill: none;" stroke="rgb(51, 187, 238)" stroke-width="2px" d="M25.316363594748758,24.221557701432715L37.97454539212313,45.08545215084354L50.632727189497515,71.44978307853363L63.29090898687189,103.03867682437233L75.94909078424627,126.28212136287003L88.60727258162065,139.11328530251356L101.26545437899503,146.76221375822684L113.92363617636941,151.79290355466924L126.58181797374378,154.06918250044401L139.23999977111816,154.93663899361266L151.89818156849253,154.65607609063585L164.55636336586693,155.02722328563092L177.2145451632413,155.41290216872284L189.87272696061567,155.8949476004088L202.53090875799006,157.22998195660713L215.18909055536443,157.98636389427054L227.84727235273883,158.58264100447562L240.5054541501132,158.81049747210793L253.16363594748756,158.96282562880307L265.82181774486196,159.02790173011692" fill="none"></path></g><g><path style="fill: none;" stroke="rgb(0, 119, 187)" stroke-width="2px" d="M25.316363594748758,-7.0768085411304185L37.97454539212313,38.25838949367213L50.632727189497515,72.51692624820305L63.29090898687189,103.48587730477291L75.94909078424627,125.95388990250187L88.60727258162065,138.45658242916176L101.26545437899503,146.0325358973234L113.92363617636941,149.57979026209694L126.58181797374378,152.05296357367877L139.23999977111816,153.261732559575L151.89818156849253,154.34160092952845L164.55636336586693,154.26110954003397L177.2145451632413,154.4298719253548L189.87272696061567,155.00039870186606L202.53090875799006,155.51476109048986L215.18909055536443,156.29407902834404L227.84727235273883,156.64618686293238L240.5054541501132,156.82654081677012L253.16363594748756,157.18745129741325L265.82181774486196,157.86294424907038" fill="none"></path></g><g><path style="fill: none;" stroke="rgb(187, 187, 187)" stroke-width="2px" d="M25.316363594748758,30.155026420430744L37.97454539212313,45.431669542992836L50.632727189497515,62.77281179900497L63.29090898687189,82.37680544832655L75.94909078424627,99.87164435385995L88.60727258162065,114.90496353644627L101.26545437899503,126.18698094934525L113.92363617636941,134.58175924472167L126.58181797374378,140.1108388063106L139.23999977111816,143.66535069740388L151.89818156849253,146.10153940226348L164.55636336586693,148.32907285622895L177.2145451632413,149.60436267478718L189.87272696061567,150.11306245219515L202.53090875799006,149.82931312565526L215.18909055536443,150.36425504167585L227.84727235273883,151.22725323317036L240.5054541501132,150.4934067993162L253.16363594748756,151.09736575930836L265.82181774486196,151.61026503690613" fill="none"></path></g></g></g></g><g opacity="0.2"><g><g><g><path style="fill: none;" stroke="rgb(204, 51, 17)" stroke-width="2px" d="M25.316363594748758,36.64007175097103L37.97454539212313,39.61001480133527L50.632727189497515,43.00145784810056L63.29090898687189,47.546756737242134L75.94909078424627,51.135399029876325L88.60727258162065,60.052292604493786L101.26545437899503,73.03417851926734L113.92363617636941,91.0521286133022L126.58181797374378,110.61626462915784L139.23999977111816,123.6486940545852L151.89818156849253,140.17214997145695L164.55636336586693,144.57816118122562L177.2145451632413,150.40326432168268L189.87272696061567,152.27414987048417L202.53090875799006,155.07590547772713L215.18909055536443,154.7181354518259L227.84727235273883,156.16627200141846L240.5054541501132,156.95888228858342L253.16363594748756,158.07750070553803L265.82181774486196,158.2867158025969" fill="none"></path></g><g><path style="fill: none;" stroke="rgb(255, 112, 67)" stroke-width="2px" d="M25.316363594748758,37.80142691381579L37.97454539212313,41.77353163113966L50.632727189497515,44.364891588377844L63.29090898687189,49.16325806979202L75.94909078424627,54.862561302705316L88.60727258162065,64.82633667878746L101.26545437899503,78.50447138596529L113.92363617636941,94.50683855813564L126.58181797374378,113.63990684482847L139.23999977111816,130.63072317117823L151.89818156849253,139.45772964669405L164.55636336586693,140.30290810193068L177.2145451632413,147.49242548964637L189.87272696061567,152.2372804213564L202.53090875799006,153.46998122336095L215.18909055536443,153.34087782272184L227.84727235273883,154.96979824741598L240.5054541501132,154.14752745832746L253.16363594748756,153.24601062325252L265.82181774486196,153.22395684012804" fill="none"></path></g><g><path style="fill: none;" stroke="rgb(0, 153, 136)" stroke-width="2px" d="M25.316363594748758,37.00772938429154L37.97454539212313,40.562460322558394L50.632727189497515,43.759239254419384L63.29090898687189,46.57713809036349L75.94909078424627,49.827271452148665L88.60727258162065,55.36608710558822L101.26545437899503,62.93709131907245L113.92363617636941,73.00180521506682L126.58181797374378,80.53375886517811L139.23999977111816,92.74908057681829L151.89818156849253,101.59032860133549L164.55636336586693,110.29044196037431L177.2145451632413,117.45356057324429L189.87272696061567,123.0986183678609L202.53090875799006,130.4083078580057L215.18909055536443,138.32488807767433L227.84727235273883,139.50265794833373L240.5054541501132,142.29216384783658L253.16363594748756,147.64509022775448L265.82181774486196,149.14673700114588" fill="none"></path></g><g><path style="fill: none;" stroke="rgb(187, 187, 187)" stroke-width="2px" d="M25.316363594748758,36.74670636012169L37.97454539212313,36.777127931696754L50.632727189497515,38.57711334552468L63.29090898687189,42.351371775185356L75.94909078424627,47.662121106994704L88.60727258162065,52.536658197014376L101.26545437899503,58.77749298279433L113.92363617636941,67.07185810058864L126.58181797374378,77.26388542504525L139.23999977111816,89.81565826248367L151.89818156849253,99.01335736858879L164.55636336586693,113.2048985250659L177.2145451632413,124.3722352820183L189.87272696061567,130.63673482588192L202.53090875799006,140.94087805206638L215.18909055536443,145.49990934256792L227.84727235273883,148.25274202692978L240.5054541501132,152.87196610402384L253.16363594748756,152.62952100219204L265.82181774486196,154.4096344100933" fill="none"></path></g><g><path style="fill: none;" stroke="rgb(238, 51, 119)" stroke-width="2px" d="M25.316363594748758,36.91716474757331L37.97454539212313,39.60396867309336L50.632727189497515,42.04602108448407L63.29090898687189,45.04179277040802L75.94909078424627,49.57904076246959L88.60727258162065,52.4718267306731L101.26545437899503,60.588318998487566L113.92363617636941,67.9211694026959L126.58181797374378,76.94345653908805L139.23999977111816,90.66862906326365L151.89818156849253,98.01444682146449L164.55636336586693,110.57686933040269L177.2145451632413,118.25389558478147L189.87272696061567,130.61258213464188L202.53090875799006,138.37749867471612L215.18909055536443,143.02111344305447L227.84727235273883,144.99480969007467L240.5054541501132,146.21819600723288L253.16363594748756,150.10905388744817L265.82181774486196,152.22614281670025" fill="none"></path></g><g><path style="fill: none;" stroke="rgb(204, 51, 17)" stroke-width="2px" d="M25.316363594748758,37.28550124441571L37.97454539212313,39.6600597715902L50.632727189497515,42.758371671048366L63.29090898687189,46.22638840163526L75.94909078424627,48.38471828984265L88.60727258162065,52.36308128025904L101.26545437899503,58.84182590873671L113.92363617636941,65.2333153601654L126.58181797374378,72.90584679552227L139.23999977111816,79.91032879273995L151.89818156849253,85.64953116842854L164.55636336586693,93.80177514718922L177.2145451632413,98.5355700397041L189.87272696061567,103.63546860450889L202.53090875799006,110.59561763157386L215.18909055536443,116.11501937937348L227.84727235273883,119.99713490288636L240.5054541501132,125.76636638217641L253.16363594748756,128.62818450581457L265.82181774486196,133.71076939900033" fill="none"></path></g><g><path style="fill: none;" stroke="rgb(0, 153, 136)" stroke-width="2px" d="M25.316363594748758,36.7363006552001L37.97454539212313,38.95824217685785L50.632727189497515,42.02878431537337L63.29090898687189,43.943614344069914L75.94909078424627,52.602242777575256L88.60727258162065,66.02350189241234L101.26545437899503,85.4183038885245L113.92363617636941,112.63695493830038L126.58181797374378,133.53524340143017L139.23999977111816,148.3045531030659L151.89818156849253,149.58751963856054L164.55636336586693,155.66337732946607L177.2145451632413,153.40619457040884L189.87272696061567,152.58518604318135L202.53090875799006,157.43211330958712L215.18909055536443,158.450103965688L227.84727235273883,158.73249892617343L240.5054541501132,158.78108349459166L253.16363594748756,158.96114069071086L265.82181774486196,159.06343171691472" fill="none"></path></g><g><path style="fill: none;" stroke="rgb(51, 187, 238)" stroke-width="2px" d="M25.316363594748758,36.128802661041476L37.97454539212313,37.37739178645015L50.632727189497515,40.26263600521506L63.29090898687189,43.26153682768526L75.94909078424627,48.20816073793648L88.60727258162065,58.13572298802238L101.26545437899503,70.4324234643501L113.92363617636941,87.82168759727334L126.58181797374378,106.56634518063639L139.23999977111816,124.62246543691421L151.89818156849253,139.399771673512L164.55636336586693,147.06998542637612L177.2145451632413,150.31931263772904L189.87272696061567,152.30590596576L202.53090875799006,151.76445595607026L215.18909055536443,155.19158872770825L227.84727235273883,155.19338168317208L240.5054541501132,154.77908102116172L253.16363594748756,156.43316281956518L265.82181774486196,156.65949982918673" fill="none"></path></g><g><path style="fill: none;" stroke="rgb(0, 119, 187)" stroke-width="2px" d="M25.316363594748758,37.09633168114178L37.97454539212313,40.12640718940665L50.632727189497515,42.65533291711526L63.29090898687189,44.033234936203L75.94909078424627,47.51724738852462L88.60727258162065,53.331374021821475L101.26545437899503,60.14321788745802L113.92363617636941,67.32296335299326L126.58181797374378,79.98554474951776L139.23999977111816,89.27613678207636L151.89818156849253,98.5011283232103L164.55636336586693,110.72016256973585L177.2145451632413,122.28034385739542L189.87272696061567,131.17153608336352L202.53090875799006,137.7827227420665L215.18909055536443,144.43546459928476L227.84727235273883,145.82618414506427L240.5054541501132,148.5361304219734L253.16363594748756,149.6271443189354L265.82181774486196,150.67501193100267" fill="none"></path></g><g><path style="fill: none;" stroke="rgb(0, 119, 187)" stroke-width="2px" d="M25.316363594748758,34.0807032372023L37.97454539212313,41.42841438819468L50.632727189497515,45.83137468983077L63.29090898687189,51.89203485400195L75.94909078424627,66.24564937271099L88.60727258162065,93.0403130277126L101.26545437899503,122.44534747037616L113.92363617636941,144.46987051633502L126.58181797374378,151.94766292313722L139.23999977111816,154.39551882209696L151.89818156849253,156.62237580623824L164.55636336586693,157.22950884495856L177.2145451632413,157.34519275789233L189.87272696061567,157.95786741788177L202.53090875799006,158.08942556647565L215.18909055536443,158.531524496393L227.84727235273883,158.23982035468242L240.5054541501132,158.669603447332L253.16363594748756,158.94170391320426L265.82181774486196,158.8646103916296" fill="none"></path></g><g><path style="fill: none;" stroke="rgb(187, 187, 187)" stroke-width="2px" d="M25.316363594748758,36.376046877165294L37.97454539212313,41.1833658712745L50.632727189497515,50.88927918146065L63.29090898687189,68.00126469103735L75.94909078424627,92.00646752731687L88.60727258162065,121.88233890319756L101.26545437899503,140.8797922682434L113.92363617636941,149.1016363318151L126.58181797374378,152.14447036398516L139.23999977111816,154.62677162567834L151.89818156849253,154.82504916404562L164.55636336586693,155.86387476480903L177.2145451632413,155.40740666750364L189.87272696061567,155.85338486489985L202.53090875799006,156.35089934455542L215.18909055536443,156.8370876095236L227.84727235273883,156.75708447160162L240.5054541501132,156.41943472739752L253.16363594748756,156.11358847958428L265.82181774486196,153.94633325974084" fill="none"></path></g><g><path style="fill: none;" stroke="rgb(238, 51, 119)" stroke-width="2px" d="M25.316363594748758,37.66391462166129L37.97454539212313,43.8838107106877L50.632727189497515,51.23444946061828L63.29090898687189,58.40476508754465L75.94909078424627,68.66196861372474L88.60727258162065,77.04741812312123L101.26545437899503,84.75937137533957L113.92363617636941,92.17927011536754L126.58181797374378,101.63492675255144L139.23999977111816,108.77492157670677L151.89818156849253,115.7510530664533L164.55636336586693,122.2203678563221L177.2145451632413,128.3432633642254L189.87272696061567,134.01469871920264L202.53090875799006,138.09025189520233L215.18909055536443,142.19687103276075L227.84727235273883,143.04445998386225L240.5054541501132,141.02466996442942L253.16363594748756,146.4287908745114L265.82181774486196,147.48542338367147" fill="none"></path></g><g><path style="fill: none;" stroke="rgb(0, 153, 136)" stroke-width="2px" d="M25.316363594748758,37.32883183014937L37.97454539212313,43.076440445542715L50.632727189497515,54.49928446054956L63.29090898687189,69.0006790821818L75.94909078424627,85.34852414354314L88.60727258162065,100.19281909443167L101.26545437899503,118.09102933117046L113.92363617636941,132.98443846678194L126.58181797374378,139.80938625465856L139.23999977111816,146.31635808141297L151.89818156849253,150.9938404492432L164.55636336586693,150.88753068689502L177.2145451632413,146.0931949576421L189.87272696061567,153.2421515758297L202.53090875799006,155.1943084909881L215.18909055536443,156.22677969052359L227.84727235273883,156.9658635115496L240.5054541501132,157.10732434973576L253.16363594748756,157.49266641094934L265.82181774486196,157.50878825942726" fill="none"></path></g><g><path style="fill: none;" stroke="rgb(51, 187, 238)" stroke-width="2px" d="M25.316363594748758,36.15287049434127L37.97454539212313,37.21872865269151L50.632727189497515,39.39818816801798L63.29090898687189,44.137323807146544L75.94909078424627,55.3098581129385L88.60727258162065,72.4227929707216L101.26545437899503,93.69865153531588L113.92363617636941,116.7628408060086L126.58181797374378,133.34783464041615L139.23999977111816,145.88132191763876L151.89818156849253,150.51694810644696L164.55636336586693,153.17768871116633L177.2145451632413,154.0178472888758L189.87272696061567,155.60493241755665L202.53090875799006,155.67840182555668L215.18909055536443,156.4771865223029L227.84727235273883,156.62438322688698L240.5054541501132,156.60130054123712L253.16363594748756,157.78674011119813L265.82181774486196,157.157578150078" fill="none"></path></g><g><path style="fill: none;" stroke="rgb(0, 119, 187)" stroke-width="2px" d="M25.316363594748758,37.366880009103255L37.97454539212313,42.66500672230231L50.632727189497515,50.83521406628698L63.29090898687189,58.64985603343494L75.94909078424627,67.64563567074548L88.60727258162065,75.08474412699466L101.26545437899503,83.99899649822224L113.92363617636941,93.41139149674892L126.58181797374378,102.5057548461301L139.23999977111816,111.39659703309472L151.89818156849253,118.7057694201662L164.55636336586693,127.79556635163837L177.2145451632413,132.310305775052L189.87272696061567,137.99050669007468L202.53090875799006,142.37374680194281L215.18909055536443,143.6941496110879L227.84727235273883,147.64971100778146L240.5054541501132,148.23734959211393L253.16363594748756,148.67438389519967L265.82181774486196,149.80881588764618" fill="none"></path></g><g><path style="fill: none;" stroke="rgb(238, 51, 119)" stroke-width="2px" d="M25.316363594748758,35.781510933377916L37.97454539212313,38.20596592941192L50.632727189497515,41.9473949434433L63.29090898687189,50.263579159121136L75.94909078424627,67.1545309488648L88.60727258162065,94.46793119253685L101.26545437899503,125.22949936421216L113.92363617636941,144.5166643667546L126.58181797374378,152.85720281128053L139.23999977111816,155.8018986355662L151.89818156849253,157.49766789154023L164.55636336586693,157.8578737712455L177.2145451632413,158.4307782327516L189.87272696061567,158.61415574438985L202.53090875799006,158.7686406190208L215.18909055536443,158.6809762344436L227.84727235273883,158.8536876665038L240.5054541501132,158.86024882609195L253.16363594748756,158.95793937519397L265.82181774486196,159.01228425638936" fill="none"></path></g><g><path style="fill: none;" stroke="rgb(204, 51, 17)" stroke-width="2px" d="M25.316363594748758,36.40683970222889L37.97454539212313,40.88786930888327L50.632727189497515,51.012927807628884L63.29090898687189,68.14263801947264L75.94909078424627,94.42667962633901L88.60727258162065,124.9377153367063L101.26545437899503,144.26240611150806L113.92363617636941,148.94282270780306L126.58181797374378,153.57300937005152L139.23999977111816,154.70000203924513L151.89818156849253,156.04966724724258L164.55636336586693,156.49637204075208L177.2145451632413,156.54300446219943L189.87272696061567,156.60628031012845L202.53090875799006,156.51313579314123L215.18909055536443,156.7678564578668L227.84727235273883,156.85020379638783L240.5054541501132,156.8646004763112L253.16363594748756,156.92190212636174L265.82181774486196,154.92848038595233" fill="none"></path></g><g><path style="fill: none;" stroke="rgb(255, 112, 67)" stroke-width="2px" d="M25.316363594748758,36.64830297117405L37.97454539212313,40.94962467489094L50.632727189497515,44.563225809197405L63.29090898687189,49.794951184160794L75.94909078424627,57.216796353192976L88.60727258162065,64.13284576944089L101.26545437899503,73.99295656428068L113.92363617636941,82.31712272996207L126.58181797374378,91.32903598316021L139.23999977111816,100.26621060549438L151.89818156849253,109.57301580825957L164.55636336586693,116.13477271677434L177.2145451632413,125.4269160585529L189.87272696061567,130.45408076133182L202.53090875799006,135.38059068793618L215.18909055536443,140.4526187229943L227.84727235273883,142.6712282445924L240.5054541501132,144.12298053798227L253.16363594748756,147.54583030397256L265.82181774486196,147.37363100284077" fill="none"></path></g><g><path style="fill: none;" stroke="rgb(255, 112, 67)" stroke-width="2px" d="M25.316363594748758,30.41131861443236L37.97454539212313,49.67722139932411L50.632727189497515,75.50145495339358L63.29090898687189,110.46571603593439L75.94909078424627,133.8269107492682L88.60727258162065,145.96712390246117L101.26545437899503,151.7062639605999L113.92363617636941,153.52661859484806L126.58181797374378,154.82051755115117L139.23999977111816,156.55888847641125L151.89818156849253,157.54460179070884L164.55636336586693,157.90408803530374L177.2145451632413,158.45053720525004L189.87272696061567,158.68584015235794L202.53090875799006,158.73303658077916L215.18909055536443,158.90660056995767L227.84727235273883,158.92495888922772L240.5054541501132,158.93136143739244L253.16363594748756,158.6850386425943L265.82181774486196,159.05280947508118" fill="none"></path></g><g><path style="fill: none;" stroke="rgb(0, 153, 136)" stroke-width="2px" d="M25.316363594748758,23.790023253598605L37.97454539212313,60.04057160149851L50.632727189497515,89.63415243193741L63.29090898687189,115.42703097708917L75.94909078424627,133.09215501467062L88.60727258162065,140.37042850425323L101.26545437899503,145.42344570888756L113.92363617636941,147.28208652209386L126.58181797374378,148.61299845677522L139.23999977111816,149.51255825560344L151.89818156849253,151.59703455474542L164.55636336586693,151.95461663356807L177.2145451632413,150.2125905188275L189.87272696061567,150.07379607623224L202.53090875799006,150.82363862447028L215.18909055536443,153.08412023595423L227.84727235273883,153.36101965038034L240.5054541501132,154.1013249616789L253.16363594748756,154.153188411075L265.82181774486196,152.21401409782024" fill="none"></path></g><g><path style="fill: none;" stroke="rgb(51, 187, 238)" stroke-width="2px" d="M25.316363594748758,31.95721814070484L37.97454539212313,51.2874962805091L50.632727189497515,70.39245537449834L63.29090898687189,89.36240018194881L75.94909078424627,105.55489687284204L88.60727258162065,117.1325350298948L101.26545437899503,127.04062503450686L113.92363617636941,132.794417672295L126.58181797374378,138.27825068408205L139.23999977111816,143.80674549054024L151.89818156849253,145.7292511851123L164.55636336586693,148.24699820509997L177.2145451632413,149.5628067523244L189.87272696061567,150.38354280600942L202.53090875799006,151.04968957001984L215.18909055536443,151.2442310386824L227.84727235273883,151.65740965331892L240.5054541501132,152.39199036841475L253.16363594748756,152.0403218273024L265.82181774486196,151.58178200294043" fill="none"></path></g><g><path style="fill: none;" stroke="rgb(238, 51, 119)" stroke-width="2px" d="M25.316363594748758,37.29798596887312L37.97454539212313,48.21816336764195L50.632727189497515,69.22350542600235L63.29090898687189,97.23893540925734L75.94909078424627,122.98037678357215L88.60727258162065,137.9391411181248L101.26545437899503,144.42965713399977L113.92363617636941,148.94345251282826L126.58181797374378,148.11877122787487L139.23999977111816,151.0565749963269L151.89818156849253,150.6534341478867L164.55636336586693,154.78858577342095L177.2145451632413,155.9643482234316L189.87272696061567,157.23407393696226L202.53090875799006,157.79806549719467L215.18909055536443,157.58026483173705L227.84727235273883,158.42678394298653L240.5054541501132,158.36775894750124L253.16363594748756,157.25458038858272L265.82181774486196,158.5320976189659" fill="none"></path></g><g><path style="fill: none;" stroke="rgb(204, 51, 17)" stroke-width="2px" d="M25.316363594748758,24.050515915641967L37.97454539212313,37.369669713888555L50.632727189497515,38.450420440750435L63.29090898687189,40.1121192337192L75.94909078424627,43.70904578276904L88.60727258162065,48.51354325036536L101.26545437899503,57.521786397648256L113.92363617636941,64.86857471854056L126.58181797374378,75.20794724897665L139.23999977111816,92.65384344976574L151.89818156849253,106.92019748780454L164.55636336586693,117.15762381028807L177.2145451632413,126.0037909435284L189.87272696061567,132.71272864576346L202.53090875799006,139.94881845771093L215.18909055536443,143.05215156060157L227.84727235273883,144.58273688047186L240.5054541501132,148.25289318013583L253.16363594748756,149.09419203641724L265.82181774486196,149.06337998572656" fill="none"></path></g><g><path style="fill: none;" stroke="rgb(255, 112, 67)" stroke-width="2px" d="M25.316363594748758,27.422706817215925L37.97454539212313,46.093872120712234L50.632727189497515,59.02061098157411L63.29090898687189,72.40722153868806L75.94909078424627,86.17327437557297L88.60727258162065,97.3725018071908L101.26545437899503,105.65604753760486L113.92363617636941,114.36294422824139L126.58181797374378,120.76440448764797L139.23999977111816,127.22332948345897L151.89818156849253,132.5939195739994L164.55636336586693,134.63547167738713L177.2145451632413,139.58318548180827L189.87272696061567,141.63714142942914L202.53090875799006,144.5990932484526L215.18909055536443,145.7049208225599L227.84727235273883,148.2680005453087L240.5054541501132,148.11890647021713L253.16363594748756,149.31658812396267L265.82181774486196,149.8626224512832" fill="none"></path></g><g><path style="fill: none;" stroke="rgb(51, 187, 238)" stroke-width="2px" d="M25.316363594748758,24.221557701432715L37.97454539212313,53.910879502944326L50.632727189497515,87.3192384295072L63.29090898687189,124.44381560641907L75.94909078424627,142.77640303198993L88.60727258162065,148.39245134419323L101.26545437899503,152.33753808888875L113.92363617636941,155.47197693049762L126.58181797374378,155.73621726391724L139.23999977111816,155.5722975785325L151.89818156849253,154.450432516673L164.55636336586693,155.29929102211477L177.2145451632413,155.69563494842777L189.87272696061567,156.24833128700956L202.53090875799006,158.20869290426467L215.18909055536443,158.54086781967996L227.84727235273883,159.019772638139L240.5054541501132,158.97753948766172L253.16363594748756,159.0744977226838L265.82181774486196,159.0756091628151" fill="none"></path></g><g><path style="fill: none;" stroke="rgb(0, 119, 187)" stroke-width="2px" d="M25.316363594748758,-7.0768085411304185L37.97454539212313,57.43517826239359L50.632727189497515,93.13813301832111L63.29090898687189,124.47093302194614L75.94909078424627,141.89790059844105L88.60727258162065,147.49820643682503L101.26545437899503,151.5546685651293L113.92363617636941,152.1739889940399L126.58181797374378,153.86419408835445L139.23999977111816,154.14749961431582L151.89818156849253,155.13310967373693L164.55636336586693,154.2021056988585L177.2145451632413,154.55358795027394L189.87272696061567,155.41864736129813L202.53090875799006,155.89183910235684L215.18909055536443,156.86539734540625L227.84727235273883,156.9043176385819L240.5054541501132,156.9587586479127L253.16363594748756,157.45203553417764L265.82181774486196,158.35814961446022" fill="none"></path></g><g><path style="fill: none;" stroke="rgb(187, 187, 187)" stroke-width="2px" d="M25.316363594748758,30.155026420430744L37.97454539212313,51.893689583836576L50.632727189497515,73.21094821602411L63.29090898687189,95.66078456207343L75.94909078424627,112.28653407409057L88.60727258162065,125.77667131829398L101.26545437899503,134.41047350065864L113.92363617636941,140.72107742417742L126.58181797374378,144.16006478377128L139.23999977111816,146.27004155690722L151.89818156849253,147.88718727944078L164.55636336586693,149.96195596281015L177.2145451632413,150.53924983386557L189.87272696061567,150.48598622845554L202.53090875799006,149.62129707649092L215.18909055536443,150.7564211915125L227.84727235273883,151.85991848702656L240.5054541501132,149.95542256436454L253.16363594748756,151.54012935038443L265.82181774486196,151.98627262299252" fill="none"></path></g></g></g></g></g></g><g transform="translate(51, 177)" clip-path="url(#clip_1)"><clipPath id="clip_1"><rect width="278" height="22"></rect></clipPath><g><g><line x1="0" y1="0" x2="0" y2="5" style="visibility: inherit;" fill="rgb(0, 0, 0)" stroke="rgb(204, 204, 204)" stroke-width="1px"></line><line x1="25.316363594748758" y1="0" x2="25.316363594748758" y2="5" style="visibility: inherit;" fill="rgb(0, 0, 0)" stroke="rgb(204, 204, 204)" stroke-width="1px"></line><line x1="50.632727189497515" y1="0" x2="50.632727189497515" y2="5" style="visibility: inherit;" fill="rgb(0, 0, 0)" stroke="rgb(204, 204, 204)" stroke-width="1px"></line><line x1="75.94909078424627" y1="0" x2="75.94909078424627" y2="5" style="visibility: inherit;" fill="rgb(0, 0, 0)" stroke="rgb(204, 204, 204)" stroke-width="1px"></line><line x1="101.26545437899503" y1="0" x2="101.26545437899503" y2="5" style="visibility: inherit;" fill="rgb(0, 0, 0)" stroke="rgb(204, 204, 204)" stroke-width="1px"></line><line x1="126.58181797374378" y1="0" x2="126.58181797374378" y2="5" style="visibility: inherit;" fill="rgb(0, 0, 0)" stroke="rgb(204, 204, 204)" stroke-width="1px"></line><line x1="151.89818156849253" y1="0" x2="151.89818156849253" y2="5" style="visibility: inherit;" fill="rgb(0, 0, 0)" stroke="rgb(204, 204, 204)" stroke-width="1px"></line><line x1="177.2145451632413" y1="0" x2="177.2145451632413" y2="5" style="visibility: inherit;" fill="rgb(0, 0, 0)" stroke="rgb(204, 204, 204)" stroke-width="1px"></line><line x1="202.53090875799006" y1="0" x2="202.53090875799006" y2="5" style="visibility: inherit;" fill="rgb(0, 0, 0)" stroke="rgb(204, 204, 204)" stroke-width="1px"></line><line x1="227.84727235273883" y1="0" x2="227.84727235273883" y2="5" style="visibility: inherit;" fill="rgb(0, 0, 0)" stroke="rgb(204, 204, 204)" stroke-width="1px"></line><line x1="253.16363594748756" y1="0" x2="253.16363594748756" y2="5" style="visibility: inherit;" fill="rgb(0, 0, 0)" stroke="rgb(204, 204, 204)" stroke-width="1px"></line><line x1="278.4799995422363" y1="0" x2="278.4799995422363" y2="5" style="visibility: inherit;" fill="rgb(0, 0, 0)" stroke="rgb(204, 204, 204)" stroke-width="1px"></line></g><g transform="translate(0, 8)"><text style="text-anchor: middle; visibility: hidden; font-family: &quot;Helvetica Neue&quot;, sans-serif; font-size: 12px; font-weight: 200;" x="0" y="0" dx="0em" dy="0.95em" fill="rgb(50, 49, 63)" stroke="none" stroke-width="1px">-2</text><text style="text-anchor: middle; visibility: hidden; font-family: &quot;Helvetica Neue&quot;, sans-serif; font-size: 12px; font-weight: 200;" x="25.316363594748758" y="0" dx="0em" dy="0.95em" fill="rgb(50, 49, 63)" stroke="none" stroke-width="1px">0</text><text style="text-anchor: middle; visibility: hidden; font-family: &quot;Helvetica Neue&quot;, sans-serif; font-size: 12px; font-weight: 200;" x="50.632727189497515" y="0" dx="0em" dy="0.95em" fill="rgb(50, 49, 63)" stroke="none" stroke-width="1px">2</text><text style="text-anchor: middle; visibility: hidden; font-family: &quot;Helvetica Neue&quot;, sans-serif; font-size: 12px; font-weight: 200;" x="75.94909078424627" y="0" dx="0em" dy="0.95em" fill="rgb(50, 49, 63)" stroke="none" stroke-width="1px">4</text><text style="text-anchor: middle; visibility: hidden; font-family: &quot;Helvetica Neue&quot;, sans-serif; font-size: 12px; font-weight: 200;" x="101.26545437899503" y="0" dx="0em" dy="0.95em" fill="rgb(50, 49, 63)" stroke="none" stroke-width="1px">6</text><text style="text-anchor: middle; visibility: hidden; font-family: &quot;Helvetica Neue&quot;, sans-serif; font-size: 12px; font-weight: 200;" x="126.58181797374378" y="0" dx="0em" dy="0.95em" fill="rgb(50, 49, 63)" stroke="none" stroke-width="1px">8</text><text style="text-anchor: middle; visibility: hidden; font-family: &quot;Helvetica Neue&quot;, sans-serif; font-size: 12px; font-weight: 200;" x="151.89818156849253" y="0" dx="0em" dy="0.95em" fill="rgb(50, 49, 63)" stroke="none" stroke-width="1px">10</text><text style="text-anchor: middle; visibility: hidden; font-family: &quot;Helvetica Neue&quot;, sans-serif; font-size: 12px; font-weight: 200;" x="177.2145451632413" y="0" dx="0em" dy="0.95em" fill="rgb(50, 49, 63)" stroke="none" stroke-width="1px">12</text><text style="text-anchor: middle; visibility: hidden; font-family: &quot;Helvetica Neue&quot;, sans-serif; font-size: 12px; font-weight: 200;" x="202.53090875799006" y="0" dx="0em" dy="0.95em" fill="rgb(50, 49, 63)" stroke="none" stroke-width="1px">14</text><text style="text-anchor: middle; visibility: hidden; font-family: &quot;Helvetica Neue&quot;, sans-serif; font-size: 12px; font-weight: 200;" x="227.84727235273883" y="0" dx="0em" dy="0.95em" fill="rgb(50, 49, 63)" stroke="none" stroke-width="1px">16</text><text style="text-anchor: middle; visibility: hidden; font-family: &quot;Helvetica Neue&quot;, sans-serif; font-size: 12px; font-weight: 200;" x="253.16363594748756" y="0" dx="0em" dy="0.95em" fill="rgb(50, 49, 63)" stroke="none" stroke-width="1px">18</text><text style="text-anchor: middle; visibility: hidden; font-family: &quot;Helvetica Neue&quot;, sans-serif; font-size: 12px; font-weight: 200;" x="278.4799995422363" y="0" dx="0em" dy="0.95em" fill="rgb(50, 49, 63)" stroke="none" stroke-width="1px">20</text></g><line x1="0" y1="0" x2="278.4799995422363" y2="0" fill="rgb(0, 0, 0)" stroke="rgb(204, 204, 204)" stroke-width="1px"></line></g></g></g></g></svg>