<svg viewBox="0 0 330 200" xmlns="http://www.w3.org/2000/svg"><g><g><g><g><g><line x1="51.52000045776367" y1="177.95999908447266" x2="46.52000045776367" y2="177.95999908447266" style="visibility: inherit;" fill="rgb(0, 0, 0)" stroke="rgb(204, 204, 204)" stroke-width="1px"></line><line x1="51.52000045776367" y1="164.27076838566708" x2="46.52000045776367" y2="164.27076838566708" style="visibility: inherit;" fill="rgb(0, 0, 0)" stroke="rgb(204, 204, 204)" stroke-width="1px"></line><line x1="51.52000045776367" y1="150.58153768686148" x2="46.52000045776367" y2="150.58153768686148" style="visibility: inherit;" fill="rgb(0, 0, 0)" stroke="rgb(204, 204, 204)" stroke-width="1px"></line><line x1="51.52000045776367" y1="136.8923069880559" x2="46.52000045776367" y2="136.8923069880559" style="visibility: inherit;" fill="rgb(0, 0, 0)" stroke="rgb(204, 204, 204)" stroke-width="1px"></line><line x1="51.52000045776367" y1="123.2030762892503" x2="46.52000045776367" y2="123.2030762892503" style="visibility: inherit;" fill="rgb(0, 0, 0)" stroke="rgb(204, 204, 204)" stroke-width="1px"></line><line x1="51.52000045776367" y1="109.51384559044473" x2="46.52000045776367" y2="109.51384559044473" style="visibility: inherit;" fill="rgb(0, 0, 0)" stroke="rgb(204, 204, 204)" stroke-width="1px"></line><line x1="51.52000045776367" y1="95.82461489163914" x2="46.52000045776367" y2="95.82461489163914" style="visibility: inherit;" fill="rgb(0, 0, 0)" stroke="rgb(204, 204, 204)" stroke-width="1px"></line><line x1="51.52000045776367" y1="82.13538419283354" x2="46.52000045776367" y2="82.13538419283354" style="visibility: inherit;" fill="rgb(0, 0, 0)" stroke="rgb(204, 204, 204)" stroke-width="1px"></line><line x1="51.52000045776367" y1="68.44615349402798" x2="46.52000045776367" y2="68.44615349402798" style="visibility: inherit;" fill="rgb(0, 0, 0)" stroke="rgb(204, 204, 204)" stroke-width="1px"></line><line x1="51.52000045776367" y1="54.75692279522238" x2="46.52000045776367" y2="54.75692279522238" style="visibility: inherit;" fill="rgb(0, 0, 0)" stroke="rgb(204, 204, 204)" stroke-width="1px"></line><line x1="51.52000045776367" y1="41.067692096416806" x2="46.52000045776367" y2="41.067692096416806" style="visibility: inherit;" fill="rgb(0, 0, 0)" stroke="rgb(204, 204, 204)" stroke-width="1px"></line><line x1="51.52000045776367" y1="27.378461397611204" x2="46.52000045776367" y2="27.378461397611204" style="visibility: inherit;" fill="rgb(0, 0, 0)" stroke="rgb(204, 204, 204)" stroke-width="1px"></line><line x1="51.52000045776367" y1="13.689230698805602" x2="46.52000045776367" y2="13.689230698805602" style="visibility: inherit;" fill="rgb(0, 0, 0)" stroke="rgb(204, 204, 204)" stroke-width="1px"></line><line x1="51.52000045776367" y1="0" x2="46.52000045776367" y2="0" style="visibility: inherit;" fill="rgb(0, 0, 0)" stroke="rgb(204, 204, 204)" stroke-width="1px"></line></g><g transform="translate(41.52000045776367, 0)"><text style="text-anchor: end; visibility: hidden; font-family: &quot;Helvetica Neue&quot;, sans-serif; font-size: 12px; font-weight: 200;" x="0" y="177.95999908447266" dx="0em" dy="0.3em" fill="rgb(50, 49, 63)" stroke="none" stroke-width="1px">0.45</text><text style="text-anchor: end; visibility: inherit; font-family: &quot;Helvetica Neue&quot;, sans-serif; font-size: 12px; font-weight: 200;" x="0" y="164.27076838566708" dx="0em" dy="0.3em" fill="rgb(50, 49, 63)" stroke="none" stroke-width="1px">0.5</text><text style="text-anchor: end; visibility: hidden; font-family: &quot;Helvetica Neue&quot;, sans-serif; font-size: 12px; font-weight: 200;" x="0" y="150.58153768686148" dx="0em" dy="0.3em" fill="rgb(50, 49, 63)" stroke="none" stroke-width="1px">0.55</text><text style="text-anchor: end; visibility: inherit; font-family: &quot;Helvetica Neue&quot;, sans-serif; font-size: 12px; font-weight: 200;" x="0" y="136.8923069880559" dx="0em" dy="0.3em" fill="rgb(50, 49, 63)" stroke="none" stroke-width="1px">0.6</text><text style="text-anchor: end; visibility: hidden; font-family: &quot;Helvetica Neue&quot;, sans-serif; font-size: 12px; font-weight: 200;" x="0" y="123.2030762892503" dx="0em" dy="0.3em" fill="rgb(50, 49, 63)" stroke="none" stroke-width="1px">0.65</text><text style="text-anchor: end; visibility: inherit; font-family: &quot;Helvetica Neue&quot;, sans-serif; font-size: 12px; font-weight: 200;" x="0" y="109.51384559044473" dx="0em" dy="0.3em" fill="rgb(50, 49, 63)" stroke="none" stroke-width="1px">0.7</text><text style="text-anchor: end; visibility: hidden; font-family: &quot;Helvetica Neue&quot;, sans-serif; font-size: 12px; font-weight: 200;" x="0" y="95.82461489163914" dx="0em" dy="0.3em" fill="rgb(50, 49, 63)" stroke="none" stroke-width="1px">0.75</text><text style="text-anchor: end; visibility: inherit; font-family: &quot;Helvetica Neue&quot;, sans-serif; font-size: 12px; font-weight: 200;" x="0" y="82.13538419283354" dx="0em" dy="0.3em" fill="rgb(50, 49, 63)" stroke="none" stroke-width="1px">0.8</text><text style="text-anchor: end; visibility: hidden; font-family: &quot;Helvetica Neue&quot;, sans-serif; font-size: 12px; font-weight: 200;" x="0" y="68.44615349402798" dx="0em" dy="0.3em" fill="rgb(50, 49, 63)" stroke="none" stroke-width="1px">0.85</text><text style="text-anchor: end; visibility: inherit; font-family: &quot;Helvetica Neue&quot;, sans-serif; font-size: 12px; font-weight: 200;" x="0" y="54.75692279522238" dx="0em" dy="0.3em" fill="rgb(50, 49, 63)" stroke="none" stroke-width="1px">0.9</text><text style="text-anchor: end; visibility: hidden; font-family: &quot;Helvetica Neue&quot;, sans-serif; font-size: 12px; font-weight: 200;" x="0" y="41.067692096416806" dx="0em" dy="0.3em" fill="rgb(50, 49, 63)" stroke="none" stroke-width="1px">0.95</text><text style="text-anchor: end; visibility: inherit; font-family: &quot;Helvetica Neue&quot;, sans-serif; font-size: 12px; font-weight: 200;" x="0" y="27.378461397611204" dx="0em" dy="0.3em" fill="rgb(50, 49, 63)" stroke="none" stroke-width="1px">1</text><text style="text-anchor: end; visibility: hidden; font-family: &quot;Helvetica Neue&quot;, sans-serif; font-size: 12px; font-weight: 200;" x="0" y="13.689230698805602" dx="0em" dy="0.3em" fill="rgb(50, 49, 63)" stroke="none" stroke-width="1px">1.05</text><text style="text-anchor: end; visibility: hidden; font-family: &quot;Helvetica Neue&quot;, sans-serif; font-size: 12px; font-weight: 200;" x="0" y="0" dx="0em" dy="0.3em" fill="rgb(50, 49, 63)" stroke="none" stroke-width="1px">1.1</text></g><line x1="51.52000045776367" y1="0" x2="51.52000045776367" y2="177.95999908447266" fill="rgb(0, 0, 0)" stroke="rgb(204, 204, 204)" stroke-width="1px"></line></g></g><g transform="translate(51, 0)" clip-path="url(#clip_0)"><clipPath id="clip_0"><rect width="278" height="177"></rect></clipPath><g><g><g><line x1="0" y1="0" x2="0" y2="177.95999908447266" fill="rgb(0, 0, 0)" stroke="rgb(60, 60, 60)" stroke-width="1px" opacity="0.25"></line><line x1="25.316363594748758" y1="0" x2="25.316363594748758" y2="177.95999908447266" fill="rgb(0, 0, 0)" stroke="rgb(60, 60, 60)" stroke-width="1px" opacity="0.25"></line><line x1="50.632727189497515" y1="0" x2="50.632727189497515" y2="177.95999908447266" fill="rgb(0, 0, 0)" stroke="rgb(60, 60, 60)" stroke-width="1px" opacity="0.25"></line><line x1="75.94909078424627" y1="0" x2="75.94909078424627" y2="177.95999908447266" fill="rgb(0, 0, 0)" stroke="rgb(60, 60, 60)" stroke-width="1px" opacity="0.25"></line><line x1="101.26545437899503" y1="0" x2="101.26545437899503" y2="177.95999908447266" fill="rgb(0, 0, 0)" stroke="rgb(60, 60, 60)" stroke-width="1px" opacity="0.25"></line><line x1="126.58181797374378" y1="0" x2="126.58181797374378" y2="177.95999908447266" fill="rgb(0, 0, 0)" stroke="rgb(60, 60, 60)" stroke-width="1px" opacity="0.25"></line><line x1="151.89818156849253" y1="0" x2="151.89818156849253" y2="177.95999908447266" fill="rgb(0, 0, 0)" stroke="rgb(60, 60, 60)" stroke-width="1px" opacity="0.25"></line><line x1="177.2145451632413" y1="0" x2="177.2145451632413" y2="177.95999908447266" fill="rgb(0, 0, 0)" stroke="rgb(60, 60, 60)" stroke-width="1px" opacity="0.25"></line><line x1="202.53090875799006" y1="0" x2="202.53090875799006" y2="177.95999908447266" fill="rgb(0, 0, 0)" stroke="rgb(60, 60, 60)" stroke-width="1px" opacity="0.25"></line><line x1="227.84727235273883" y1="0" x2="227.84727235273883" y2="177.95999908447266" fill="rgb(0, 0, 0)" stroke="rgb(60, 60, 60)" stroke-width="1px" opacity="0.25"></line><line x1="253.16363594748756" y1="0" x2="253.16363594748756" y2="177.95999908447266" fill="rgb(0, 0, 0)" stroke="rgb(60, 60, 60)" stroke-width="1px" opacity="0.25"></line><line x1="278.4799995422363" y1="0" x2="278.4799995422363" y2="177.95999908447266" fill="rgb(0, 0, 0)" stroke="rgb(60, 60, 60)" stroke-width="1px" opacity="0.25"></line></g><g><line x1="0" y1="177.95999908447266" x2="278.4799995422363" y2="177.95999908447266" fill="rgb(0, 0, 0)" stroke="rgb(60, 60, 60)" stroke-width="1px" opacity="0.25"></line><line x1="0" y1="164.27076838566708" x2="278.4799995422363" y2="164.27076838566708" fill="rgb(0, 0, 0)" stroke="rgb(60, 60, 60)" stroke-width="1px" opacity="0.25"></line><line x1="0" y1="150.58153768686148" x2="278.4799995422363" y2="150.58153768686148" fill="rgb(0, 0, 0)" stroke="rgb(60, 60, 60)" stroke-width="1px" opacity="0.25"></line><line x1="0" y1="136.8923069880559" x2="278.4799995422363" y2="136.8923069880559" fill="rgb(0, 0, 0)" stroke="rgb(60, 60, 60)" stroke-width="1px" opacity="0.25"></line><line x1="0" y1="123.2030762892503" x2="278.4799995422363" y2="123.2030762892503" fill="rgb(0, 0, 0)" stroke="rgb(60, 60, 60)" stroke-width="1px" opacity="0.25"></line><line x1="0" y1="109.51384559044473" x2="278.4799995422363" y2="109.51384559044473" fill="rgb(0, 0, 0)" stroke="rgb(60, 60, 60)" stroke-width="1px" opacity="0.25"></line><line x1="0" y1="95.82461489163914" x2="278.4799995422363" y2="95.82461489163914" fill="rgb(0, 0, 0)" stroke="rgb(60, 60, 60)" stroke-width="1px" opacity="0.25"></line><line x1="0" y1="82.13538419283354" x2="278.4799995422363" y2="82.13538419283354" fill="rgb(0, 0, 0)" stroke="rgb(60, 60, 60)" stroke-width="1px" opacity="0.25"></line><line x1="0" y1="68.44615349402798" x2="278.4799995422363" y2="68.44615349402798" fill="rgb(0, 0, 0)" stroke="rgb(60, 60, 60)" stroke-width="1px" opacity="0.25"></line><line x1="0" y1="54.75692279522238" x2="278.4799995422363" y2="54.75692279522238" fill="rgb(0, 0, 0)" stroke="rgb(60, 60, 60)" stroke-width="1px" opacity="0.25"></line><line x1="0" y1="41.067692096416806" x2="278.4799995422363" y2="41.067692096416806" fill="rgb(0, 0, 0)" stroke="rgb(60, 60, 60)" stroke-width="1px" opacity="0.25"></line><line x1="0" y1="27.378461397611204" x2="278.4799995422363" y2="27.378461397611204" fill="rgb(0, 0, 0)" stroke="rgb(60, 60, 60)" stroke-width="1px" opacity="0.25"></line><line x1="0" y1="13.689230698805602" x2="278.4799995422363" y2="13.689230698805602" fill="rgb(0, 0, 0)" stroke="rgb(60, 60, 60)" stroke-width="1px" opacity="0.25"></line><line x1="0" y1="0" x2="278.4799995422363" y2="0" fill="rgb(0, 0, 0)" stroke="rgb(60, 60, 60)" stroke-width="1px" opacity="0.25"></line></g></g></g><g><g><line x1="0" y1="301.1630753737229" x2="278.4799995422363" y2="301.1630753737229" fill="rgb(0, 0, 0)" stroke="rgb(153, 153, 153)" stroke-width="1.5px"></line></g></g><g><g><line x1="25.316363594748758" y1="0" x2="25.316363594748758" y2="177.95999908447266" fill="rgb(0, 0, 0)" stroke="rgb(153, 153, 153)" stroke-width="1.5px"></line></g></g><g><g><g><g><g><path style="fill: none;" stroke="rgb(204, 51, 17)" stroke-width="2px" d="M25.316363594748758,165.21485376789337L37.97454539212313,150.45316047536824L50.632727189497515,140.0724711265832L63.29090898687189,130.53275255946082L75.94909078424627,122.8861604577678L88.60727258162065,116.31294517789627L101.26545437899503,103.23382810386732L113.92363617636941,88.0938521230066L126.58181797374378,72.16535003879908L139.23999977111816,59.39465808161211L151.89818156849253,46.503868335515136L164.55636336586693,39.9623751310605L177.2145451632413,35.01652045438425L189.87272696061567,32.60671777193727L202.53090875799006,30.951850543566593L215.18909055536443,30.206450653290716L227.84727235273883,29.527991942947097L240.5054541501132,29.104820991046665L253.16363594748756,28.78963659349006L265.82181774486196,28.656313613902057" fill="none"></path></g><g><path style="fill: none;" stroke="rgb(255, 112, 67)" stroke-width="2px" d="M25.316363594748758,152.46970518754713L37.97454539212313,139.36663279120924L50.632727189497515,135.5628990820647L63.29090898687189,128.47678528265067L75.94909078424627,119.40975135332425L88.60727258162065,108.78169631553475L101.26545437899503,97.1008351018157L113.92363617636941,82.09512697473772L126.58181797374378,67.54033401912909L139.23999977111816,53.806521035488004L151.89818156849253,44.82130505236762L164.55636336586693,40.294797137150795L177.2145451632413,36.29201696478469L189.87272696061567,32.55610865599414L202.53090875799006,30.74886498987283L215.18909055536443,29.89361574968467L227.84727235273883,29.531846058852466L240.5054541501132,29.605789553289412L253.16363594748756,30.091020890055603L265.82181774486196,29.842320484622633" fill="none"></path></g><g><path style="fill: none;" stroke="rgb(0, 153, 136)" stroke-width="2px" d="M25.316363594748758,158.3702367866071L37.97454539212313,145.65417191894466L50.632727189497515,136.64854967666946L63.29090898687189,130.83803347781196L75.94909078424627,125.03765898754276L88.60727258162065,118.26597226022801L101.26545437899503,109.60883515155592L113.92363617636941,99.78408130677289L126.58181797374378,90.7771393029698L139.23999977111816,81.52204737160011L151.89818156849253,72.29693569469278L164.55636336586693,65.03597850232073L177.2145451632413,58.37855522044845L189.87272696061567,52.79344879106252L202.53090875799006,47.979644852452196L215.18909055536443,42.76578684714778L227.84727235273883,39.8794039930271L240.5054541501132,37.160440868090575L253.16363594748756,34.103736950908996L265.82181774486196,32.31141319895397" fill="none"></path></g><g><path style="fill: none;" stroke="rgb(187, 187, 187)" stroke-width="2px" d="M25.316363594748758,162.77596313071822L37.97454539212313,160.0668874941716L50.632727189497515,152.03387681039987L63.29090898687189,140.288251300512L75.94909078424627,131.0770702631752L88.60727258162065,123.72256367528257L101.26545437899503,115.77724871160534L113.92363617636941,106.7065969402101L126.58181797374378,97.06430029547376L139.23999977111816,86.7234214366678L151.89818156849253,76.85759379949373L164.55636336586693,66.60188356674128L177.2145451632413,56.90733622160725L189.87272696061567,49.2658425251343L202.53090875799006,42.7650958208086L215.18909055536443,38.42647884392716L227.84727235273883,35.9557165897869L240.5054541501132,32.867828167021486L253.16363594748756,31.879412524652906L265.82181774486196,30.825782017966105" fill="none"></path></g><g><path style="fill: none;" stroke="rgb(238, 51, 119)" stroke-width="2px" d="M25.316363594748758,158.60625609230934L37.97454539212313,147.8252518038426L50.632727189497515,140.4601591784961L63.29090898687189,133.45621618908706L75.94909078424627,126.4465433127133L88.60727258162065,120.50086924597161L101.26545437899503,113.46338038664372L113.92363617636941,105.77464147620908L126.58181797374378,96.98821487584141L139.23999977111816,84.60270201195257L151.89818156849253,76.14221602699197L164.55636336586693,68.11513651134757L177.2145451632413,60.58892401039415L189.87272696061567,51.27708814998135L202.53090875799006,44.25138214938019L215.18909055536443,39.19136034238045L227.84727235273883,36.733214683174566L240.5054541501132,35.28486105535194L253.16363594748756,32.901817325518266L265.82181774486196,31.757606839417065" fill="none"></path></g><g><path style="fill: none;" stroke="rgb(204, 51, 17)" stroke-width="2px" d="M25.316363594748758,156.32471981835303L37.97454539212313,145.5437040619772L50.632727189497515,138.1295071167815L63.29090898687189,131.62380874475954L75.94909078424627,127.34259243001357L88.60727258162065,120.7399514370112L101.26545437899503,113.65518635506866L113.92363617636941,106.17374854260213L126.58181797374378,98.29229845016397L139.23999977111816,90.2847348687186L151.89818156849253,84.22024635886322L164.55636336586693,77.5696975226023L177.2145451632413,71.9875707069309L189.87272696061567,67.90138870897256L202.53090875799006,63.17688866784205L215.18909055536443,58.227778166497046L227.84727235273883,54.09154186308207L240.5054541501132,50.43533227421666L253.16363594748756,47.57230964770915L265.82181774486196,43.77375269624113" fill="none"></path></g><g><path style="fill: none;" stroke="rgb(0, 153, 136)" stroke-width="2px" d="M25.316363594748758,157.97687127710338L37.97454539212313,149.57321041840947L50.632727189497515,139.54538168289486L63.29090898687189,134.35291857060605L75.94909078424627,124.01164448430754L88.60727258162065,109.66290294285838L101.26545437899503,93.37690407787288L113.92363617636941,73.29694016704022L126.58181797374378,54.69259955370893L139.23999977111816,42.4254875190492L151.89818156849253,36.42117487849745L164.55636336586693,32.383659995996936L177.2145451632413,31.2206401089432L189.87272696061567,31.40962506333281L202.53090875799006,30.036931610501597L215.18909055536443,29.50167950681268L227.84727235273883,29.002901928855806L240.5054541501132,28.882707972041572L253.16363594748756,28.695682796641904L265.82181774486196,28.70735992230601" fill="none"></path></g><g><path style="fill: none;" stroke="rgb(51, 187, 238)" stroke-width="2px" d="M25.316363594748758,163.01198243642045L37.97454539212313,159.08659742403657L50.632727189497515,147.58923678282872L63.29090898687189,137.97713645216498L75.94909078424627,128.82927413168014L88.60727258162065,119.4463078729412L101.26545437899503,106.19302558186713L113.92363617636941,89.70736837425918L126.58181797374378,74.39156080656132L139.23999977111816,59.24643522980632L151.89818156849253,46.84975782010076L164.55636336586693,38.973773679624344L177.2145451632413,34.28058488913729L189.87272696061567,31.977647580776363L202.53090875799006,30.821938231872394L215.18909055536443,29.742947976796643L227.84727235273883,29.241141629703122L240.5054541501132,29.165060892979653L253.16363594748756,28.860512452650198L265.82181774486196,28.77708286359851" fill="none"></path></g><g><path style="fill: none;" stroke="rgb(0, 119, 187)" stroke-width="2px" d="M25.316363594748758,157.74085197140113L37.97454539212313,146.62811547616056L50.632727189497515,138.4878660554281L63.29090898687189,134.1133638954055L75.94909078424627,128.65205907885763L88.60727258162065,121.56343816402153L101.26545437899503,112.27318112655334L113.92363617636941,104.45394517770303L126.58181797374378,92.84215108363077L139.23999977111816,84.12064106296397L151.89818156849253,74.57637935749L164.55636336586693,65.22840081167386L177.2145451632413,55.96320393770897L189.87272696061567,48.41253130435365L202.53090875799006,42.858100738753166L215.18909055536443,37.42173861961177L227.84727235273883,35.167556532778605L240.5054541501132,33.12456359669062L253.16363594748756,32.21498351665548L265.82181774486196,30.876939778423207" fill="none"></path></g><g><path style="fill: none;" stroke="rgb(0, 119, 187)" stroke-width="2px" d="M25.316363594748758,155.06593386910643L37.97454539212313,141.6864275237146L50.632727189497515,130.8358085010738L63.29090898687189,124.081942101271L75.94909078424627,108.70407703956427L88.60727258162065,87.66988888510129L101.26545437899503,65.53863752118416L113.92363617636941,47.67822962400794L126.58181797374378,37.640512732005675L139.23999977111816,32.94410545283225L151.89818156849253,30.458855522541143L164.55636336586693,29.54394072080325L177.2145451632413,28.975376371925222L189.87272696061567,28.91645871790371L202.53090875799006,28.755353356667L215.18909055536443,28.823389399877385L227.84727235273883,28.852168587465115L240.5054541501132,28.86434217331336L253.16363594748756,28.778702831435368L265.82181774486196,28.787871776735983" fill="none"></path></g><g><path style="fill: none;" stroke="rgb(187, 187, 187)" stroke-width="2px" d="M25.316363594748758,154.90858766530494L37.97454539212313,143.18769648214572L50.632727189497515,129.2389887928204L63.29090898687189,110.77499462923633L75.94909078424627,89.28322443791235L88.60727258162065,66.37042160140744L101.26545437899503,49.187006248874525L113.92363617636941,38.453662619544275L126.58181797374378,33.195860778804416L139.23999977111816,30.74666916152424L151.89818156849253,29.66563204809998L164.55636336586693,29.299213950124795L177.2145451632413,29.05343894779554L189.87272696061567,28.994873569362056L202.53090875799006,28.924706204090086L215.18909055536443,28.98581440665231L227.84727235273883,28.966268723651467L240.5054541501132,28.95800090687419L253.16363594748756,29.27226430549851L265.82181774486196,29.63216960921639" fill="none"></path></g><g><path style="fill: none;" stroke="rgb(238, 51, 119)" stroke-width="2px" d="M25.316363594748758,148.92938296434423L37.97454539212313,137.70607288948207L50.632727189497515,126.39347077178428L63.29090898687189,116.00352815455487L75.94909078424627,104.5685915440898L88.60727258162065,94.83730678255688L101.26545437899503,86.94443730076699L113.92363617636941,79.94072741798031L126.58181797374378,72.21553052128388L139.23999977111816,65.63610644354337L151.89818156849253,59.72151743546617L164.55636336586693,53.8607004519221L177.2145451632413,49.0665684463753L189.87272696061567,44.08802498870119L202.53090875799006,40.484097438239274L215.18909055536443,36.826086510037214L227.84727235273883,35.50573245875847L240.5054541501132,36.354458631064745L253.16363594748756,33.85359526844002L265.82181774486196,32.34178641609529" fill="none"></path></g><g><path style="fill: none;" stroke="rgb(0, 153, 136)" stroke-width="2px" d="M25.316363594748758,152.94174379895162L37.97454539212313,138.4012033996242L50.632727189497515,122.92216493480811L63.29090898687189,107.66077896099418L75.94909078424627,91.53396208339672L88.60727258162065,78.18119559124507L101.26545437899503,64.17750752609227L113.92363617636941,51.51107854129869L126.58181797374378,43.07566810935694L139.23999977111816,37.7397686141621L151.89818156849253,33.712959117650826L164.55636336586693,32.14606281664996L177.2145451632413,33.889262259186836L189.87272696061567,32.084496728179175L202.53090875799006,30.59476831282805L215.18909055536443,29.692249666242276L227.84727235273883,29.174301857368448L240.5054541501132,28.819026958220206L253.16363594748756,28.8049288809365L265.82181774486196,28.93514853913686" fill="none"></path></g><g><path style="fill: none;" stroke="rgb(51, 187, 238)" stroke-width="2px" d="M25.316363594748758,163.56271046856034L37.97454539212313,158.7527138833857L50.632727189497515,147.1691102996045L63.29090898687189,136.72882806875765L75.94909078424627,122.6509182625233L88.60727258162065,106.2611438643802L101.26545437899503,88.21131855803543L113.92363617636941,69.20641664494825L126.58181797374378,53.55371479526865L139.23999977111816,41.53523544774916L151.89818156849253,35.45446538349134L164.55636336586693,32.156343662653285L177.2145451632413,30.579747001465762L189.87272696061567,29.64049670493165L202.53090875799006,29.24319835772559L215.18909055536443,28.938958684611208L227.84727235273883,28.90105436527253L240.5054541501132,28.74883768703262L253.16363594748756,28.639055672225368L265.82181774486196,28.774195412424064" fill="none"></path></g><g><path style="fill: none;" stroke="rgb(0, 119, 187)" stroke-width="2px" d="M25.316363594748758,152.39103208564637L37.97454539212313,138.8456653708222L50.632727189497515,125.44654402949104L63.29090898687189,114.82381135986816L75.94909078424627,104.76918949409455L88.60727258162065,96.56511545661391L101.26545437899503,87.21782285212659L113.92363617636941,78.05678670851356L126.58181797374378,70.78329813304276L139.23999977111816,62.66946414836151L151.89818156849253,56.24224453327186L164.55636336586693,48.9389195646321L177.2145451632413,44.53334518371133L189.87272696061567,40.127718405778694L202.53090875799006,36.811516925307416L215.18909055536443,34.86403733201578L227.84727235273883,32.814596928839165L240.5054541501132,31.85689560946406L253.16363594748756,31.31560494897053L265.82181774486196,30.723474568365845" fill="none"></path></g><g><path style="fill: none;" stroke="rgb(238, 51, 119)" stroke-width="2px" d="M25.316363594748758,161.43852039840553L37.97454539212313,154.3064671732688L50.632727189497515,141.27480377544387L63.29090898687189,128.2984195409798L75.94909078424627,111.00645772014094L88.60727258162065,88.63614188287534L101.26545437899503,64.58085948918682L113.92363617636941,47.63718420376961L126.58181797374378,37.89565463313673L139.23999977111816,32.96119805873991L151.89818156849253,30.738472339979865L164.55636336586693,29.616817470420358L177.2145451632413,29.278572712889485L189.87272696061567,29.09010438924338L202.53090875799006,28.919594211878035L215.18909055536443,28.802074327089343L227.84727235273883,28.797757917170912L240.5054541501132,28.65974891235976L253.16363594748756,28.601371124626297L265.82181774486196,28.667466086873787" fill="none"></path></g><g><path style="fill: none;" stroke="rgb(204, 51, 17)" stroke-width="2px" d="M25.316363594748758,154.04318354439673L37.97454539212313,143.0963074185885L50.632727189497515,127.48573717367955L63.29090898687189,109.9730366593764L75.94909078424627,88.76627849950755L88.60727258162065,65.19468820261442L101.26545437899503,47.826721190385285L113.92363617636941,38.833327460377234L126.58181797374378,33.49260619415375L139.23999977111816,30.91756377074509L151.89818156849253,29.737912817439707L164.55636336586693,29.23899560788351L177.2145451632413,28.93717705148626L189.87272696061567,28.945695181118595L202.53090875799006,28.949298308886313L215.18909055536443,28.814639142116988L227.84727235273883,28.893861630646853L240.5054541501132,28.7457951610661L253.16363594748756,28.864740600913166L265.82181774486196,29.23281518346792" fill="none"></path></g><g><path style="fill: none;" stroke="rgb(255, 112, 67)" stroke-width="2px" d="M25.316363594748758,151.05357303449904L37.97454539212313,139.60911580039377L50.632727189497515,134.08242501407682L63.29090898687189,126.42501931674184L75.94909078424627,117.95986906225298L88.60727258162065,108.90371082063702L101.26545437899503,98.7449576777667L113.92363617636941,90.19654994582432L126.58181797374378,80.95637910128684L139.23999977111816,74.09988211973312L151.89818156849253,66.34300331782306L164.55636336586693,59.65761923572913L177.2145451632413,51.609408681236545L189.87272696061567,47.29720500298788L202.53090875799006,42.88565872966285L215.18909055536443,38.931421156176754L227.84727235273883,37.0772044737713L240.5054541501132,35.3849743111322L253.16363594748756,32.58101016086863L265.82181774486196,32.166637990880076" fill="none"></path></g><g><path style="fill: none;" stroke="rgb(255, 112, 67)" stroke-width="2px" d="M25.316363594748758,150.81755372879678L37.97454539212313,127.4310581522892L50.632727189497515,103.67364657348935L63.29090898687189,77.00067070026665L75.94909078424627,55.38446813528931L88.60727258162065,41.5060259373152L101.26545437899503,34.38123682612232L113.92363617636941,31.33620001929782L126.58181797374378,30.005299182184046L139.23999977111816,29.533607422644252L151.89818156849253,29.107163335413446L164.55636336586693,28.972200520479902L177.2145451632413,28.96050989620784L189.87272696061567,28.819380956360362L202.53090875799006,28.759684095202886L215.18909055536443,28.77982687216368L227.84727235273883,28.742952849471664L240.5054541501132,28.681960762997818L253.16363594748756,28.656161119833513L265.82181774486196,28.599853491135804" fill="none"></path></g><g><path style="fill: none;" stroke="rgb(0, 153, 136)" stroke-width="2px" d="M25.316363594748758,147.98530574153526L37.97454539212313,115.80813030974913L50.632727189497515,88.55079561123836L63.29090898687189,66.1089008868971L75.94909078424627,49.52900776477105L88.60727258162065,39.45953536690868L101.26545437899503,34.018990690863404L113.92363617636941,31.50127106161449L126.58181797374378,30.256739199619403L139.23999977111816,29.59453723030083L151.89818156849253,29.178331818154874L164.55636336586693,29.229282788592627L177.2145451632413,29.11464864644404L189.87272696061567,29.111554357194365L202.53090875799006,29.246428965393733L215.18909055536443,28.940325229696413L227.84727235273883,28.810843613552038L240.5054541501132,28.80146732550031L253.16363594748756,28.75210677369526L265.82181774486196,28.822016026151687" fill="none"></path></g><g><path style="fill: none;" stroke="rgb(51, 187, 238)" stroke-width="2px" d="M25.316363594748758,154.90858766530494L37.97454539212313,127.87312955755819L50.632727189497515,105.0675532105847L63.29090898687189,83.47260828374486L75.94909078424627,67.64256364219406L88.60727258162065,54.959893371295024L101.26545437899503,46.56057775640804L113.92363617636941,40.66144698193406L126.58181797374378,36.445337416428515L139.23999977111816,33.255930933361356L151.89818156849253,31.544099677564816L164.55636336586693,30.320749535370027L177.2145451632413,29.576330338203604L189.87272696061567,29.216054855948215L202.53090875799006,29.109054556426173L215.18909055536443,29.15458250291499L227.84727235273883,29.037657585093996L240.5054541501132,28.85201522253024L253.16363594748756,28.773488531819652L265.82181774486196,28.87645489074697" fill="none"></path></g><g><path style="fill: none;" stroke="rgb(238, 51, 119)" stroke-width="2px" d="M25.316363594748758,149.55878409838485L37.97454539212313,130.0976735342612L50.632727189497515,106.73832654926925L63.29090898687189,82.83436895985494L75.94909078424627,61.76346153581662L88.60727258162065,46.60291655937178L101.26545437899503,38.16825461293246L113.92363617636941,33.11763033953727L126.58181797374378,31.121710911198505L139.23999977111816,29.91492600699317L151.89818156849253,29.767820945192568L164.55636336586693,29.20625031009729L177.2145451632413,28.87793104286621L189.87272696061567,28.739055734832817L202.53090875799006,28.680312149067674L215.18909055536443,28.882435869531577L227.84727235273883,28.69556762910551L240.5054541501132,28.707311208252975L253.16363594748756,28.71227874041969L265.82181774486196,28.668985624878275" fill="none"></path></g><g><path style="fill: none;" stroke="rgb(204, 51, 17)" stroke-width="2px" d="M25.316363594748758,157.97687127710338L37.97454539212313,155.76537674885378L50.632727189497515,151.30157954428824L63.29090898687189,144.16622763858376L75.94909078424627,135.5858714334338L88.60727258162065,125.38651791740304L101.26545437899503,110.06256708979153L113.92363617636941,98.61250316750119L126.58181797374378,88.69235309786215L139.23999977111816,76.69033030849695L151.89818156849253,65.25952882033312L164.55636336586693,56.47554962028259L177.2145451632413,49.40090411597876L189.87272696061567,44.36564119926064L202.53090875799006,39.55744595292987L215.18909055536443,36.75188390189632L227.84727235273883,35.38354655862949L240.5054541501132,33.89685259512078L253.16363594748756,33.177192511215395L265.82181774486196,32.6457950201241" fill="none"></path></g><g><path style="fill: none;" stroke="rgb(255, 112, 67)" stroke-width="2px" d="M25.316363594748758,153.64981803489297L37.97454539212313,133.69112636247226L50.632727189497515,115.5044702219619L63.29090898687189,97.34885386873589L75.94909078424627,83.15810915754423L88.60727258162065,70.6939609784807L101.26545437899503,60.884387166636444L113.92363617636941,52.755642021376346L126.58181797374378,47.007890493310924L139.23999977111816,42.58090021186513L151.89818156849253,38.620627704479915L164.55636336586693,36.17394550513367L177.2145451632413,33.504835085990294L189.87272696061567,32.012674629039196L202.53090875799006,30.70057114545554L215.18909055536443,30.463315040129913L227.84727235273883,29.909011912536755L240.5054541501132,29.538358726836123L253.16363594748756,29.245389336275878L265.82181774486196,29.212252065844183" fill="none"></path></g><g><path style="fill: none;" stroke="rgb(51, 187, 238)" stroke-width="2px" d="M25.316363594748758,151.52562796473816L37.97454539212313,125.48533207358554L50.632727189497515,95.37930608864208L63.29090898687189,64.83397006210762L75.94909078424627,46.60687810052269L88.60727258162065,38.141877000400996L101.26545437899503,33.37245869060138L113.92363617636941,31.1372888788554L126.58181797374378,30.057451763888196L139.23999977111816,29.918884098648732L151.89818156849253,30.405075081543174L164.55636336586693,30.701494635978918L177.2145451632413,30.37291260520459L189.87272696061567,30.143136858504676L202.53090875799006,29.50120891488828L215.18909055536443,29.093491421371766L227.84727235273883,28.830238473384384L240.5054541501132,28.673488184114916L253.16363594748756,28.652577219354782L265.82181774486196,28.734520645273705" fill="none"></path></g><g><path style="fill: none;" stroke="rgb(0, 119, 187)" stroke-width="2px" d="M25.316363594748758,147.3559209263293L37.97454539212313,120.26516456086264L50.632727189497515,88.60484887338622L63.29090898687189,61.863179377972784L75.94909078424627,44.95960812567742L88.60727258162065,36.354806419809336L101.26545437899503,32.02747213917439L113.92363617636941,30.02386436061869L126.58181797374378,29.26885337028355L139.23999977111816,28.949752550888206L151.89818156849253,28.76942305838537L164.55636336586693,28.92013451755085L177.2145451632413,28.93848639399266L189.87272696061567,28.900854382221553L202.53090875799006,28.748752745036285L215.18909055536443,28.684414062691843L227.84727235273883,28.61180445559026L240.5054541501132,28.626485006611404L253.16363594748756,28.63269487742744L265.82181774486196,28.68071603370072" fill="none"></path></g><g><path style="fill: none;" stroke="rgb(187, 187, 187)" stroke-width="2px" d="M25.316363594748758,147.3559209263293L37.97454539212313,124.30113462077725L50.632727189497515,101.36799544665959L63.29090898687189,79.72728094770645L75.94909078424627,63.14281420846446L88.60727258162065,50.742987433023515L101.26545437899503,42.23445780063571L113.92363617636941,36.83464791643948L126.58181797374378,33.87385429247374L139.23999977111816,31.80523467195289L151.89818156849253,30.340347379291273L164.55636336586693,29.539209889710946L177.2145451632413,29.154955307987677L189.87272696061567,28.901630706762035L202.53090875799006,29.021448084472496L215.18909055536443,29.02673616340826L227.84727235273883,28.983578616265874L240.5054541501132,28.965322989572513L253.16363594748756,28.866812095486125L265.82181774486196,28.825141993719427" fill="none"></path></g></g></g></g><g opacity="0.2"><g><g><g><path style="fill: none;" stroke="rgb(204, 51, 17)" stroke-width="2px" d="M25.316363594748758,165.21485376789337L37.97454539212313,144.20896421263012L50.632727189497515,133.82403316755827L63.29090898687189,124.0684869376924L75.94909078424627,117.4598974215257L88.60727258162065,111.55936582246572L101.26545437899503,93.70042482148433L113.92363617636941,77.02159666784878L126.58181797374378,60.500098399180075L139.23999977111816,50.036494252207476L151.89818156849253,37.05533452557631L164.55636336586693,35.16716376112373L177.2145451632413,31.390822232218596L189.87272696061567,30.840110518913377L202.53090875799006,29.738670773468243L215.18909055536443,29.65999767156751L227.84727235273883,29.03061285636153L240.5054541501132,28.7945935506593L253.16363594748756,28.558574244957043L265.82181774486196,28.558574244957043" fill="none"></path></g><g><path style="fill: none;" stroke="rgb(255, 112, 67)" stroke-width="2px" d="M25.316363594748758,152.46970518754713L37.97454539212313,133.82403316755827L50.632727189497515,133.27332145425305L63.29090898687189,123.67512142818866L75.94909078424627,112.97549797551383L88.60727258162065,101.09576167549314L101.26545437899503,88.58662424143182L113.92363617636941,71.12106506878881L126.58181797374378,56.881119392911074L139.23999977111816,43.74259714364376L151.89818156849253,38.23543105408751L164.55636336586693,36.97666142367558L177.2145451632413,33.35766609857191L189.87272696061567,29.817343875369005L202.53090875799006,29.423978365865253L215.18909055536443,29.266632162063786L227.84727235273883,29.266632162063786L240.5054541501132,29.65999767156751L253.16363594748756,30.446745009409625L265.82181774486196,29.65999767156751" fill="none"></path></g><g><path style="fill: none;" stroke="rgb(0, 153, 136)" stroke-width="2px" d="M25.316363594748758,158.3702367866071L37.97454539212313,140.27527647992346L50.632727189497515,131.22780448599897L63.29090898687189,126.90073492495392L75.94909078424627,120.92153022399322L88.60727258162065,113.36886348501756L101.26545437899503,103.2986248475487L113.92363617636941,92.59898507603921L126.58181797374378,84.18089789732069L139.23999977111816,74.74006039389248L151.89818156849253,65.53522587733183L164.55636336586693,59.7133673801726L177.2145451632413,53.498143373509635L189.87272696061567,48.699051519894795L202.53090875799006,44.45065506075048L215.18909055536443,38.943505290028895L227.84727235273883,37.76339244268303L240.5054541501132,35.16716376112373L253.16363594748756,31.862860843623082L265.82181774486196,30.997456722714844" fill="none"></path></g><g><path style="fill: none;" stroke="rgb(187, 187, 187)" stroke-width="2px" d="M25.316363594748758,162.77596313071822L37.97454539212313,158.92094849991233L50.632727189497515,147.19857472252778L63.29090898687189,132.3292279126094L75.94909078424627,124.54052554909686L88.60727258162065,118.40397464433465L101.26545437899503,109.98588746561613L113.92363617636941,100.07299503194876L126.58181797374378,90.00275639447992L139.23999977111816,79.1457867380036L151.89818156849253,69.62625981383997L164.55636336586693,59.08398256496663L177.2145451632413,49.80047494650523L189.87272696061567,43.66392404174303L202.53090875799006,37.999411748385285L215.18909055536443,35.24583686302449L227.84727235273883,34.14439711757939L240.5054541501132,30.60409121321112L253.16363594748756,31.15480292651634L265.82181774486196,30.053363181071234" fill="none"></path></g><g><path style="fill: none;" stroke="rgb(238, 51, 119)" stroke-width="2px" d="M25.316363594748758,158.60625609230934L37.97454539212313,143.26488698982115L50.632727189497515,136.0268963396138L63.29090898687189,128.71023258750574L75.94909078424627,121.4722582561331L88.60727258162065,116.20111147227911L101.26545437899503,108.3337360068658L113.92363617636941,100.15166813384953L126.58181797374378,90.55346810778515L139.23999977111816,75.52679141289993L151.89818156849253,69.94095222144294L164.55636336586693,62.23092295983115L177.2145451632413,55.071621730359226L189.87272696061567,44.45065506075048L202.53090875799006,39.10085149383039L215.18909055536443,35.48185616872672L227.84727235273883,34.9311444554215L240.5054541501132,34.22307021948012L253.16363594748756,31.15480292651634L265.82181774486196,30.91878362081411" fill="none"></path></g><g><path style="fill: none;" stroke="rgb(204, 51, 17)" stroke-width="2px" d="M25.316363594748758,156.32471981835303L37.97454539212313,140.98333439703018L50.632727189497515,133.66668696375677L63.29090898687189,127.21544365139158L75.94909078424627,124.30450624339463L88.60727258162065,115.96509216657685L101.26545437899503,108.49108221066729L113.92363617636941,100.70237984715475L126.58181797374378,92.52031197413847L139.23999977111816,84.41691720302293L151.89818156849253,79.77517155320957L164.55636336586693,72.6945434256384L177.2145451632413,67.89543525318888L189.87272696061567,64.90584106212584L202.53090875799006,59.7133673801726L215.18909055536443,54.599583118954754L227.84727235273883,51.059260895751834L240.5054541501132,47.754957978251156L253.16363594748756,45.47342170429485L265.82181774486196,40.98902225828297" fill="none"></path></g><g><path style="fill: none;" stroke="rgb(0, 153, 136)" stroke-width="2px" d="M25.316363594748758,157.97687127710338L37.97454539212313,146.01846187518194L50.632727189497515,133.50934075995528L63.29090898687189,130.83442265766058L75.94909078424627,116.67315008368357L88.60727258162065,99.28626401294132L101.26545437899503,81.50599611386066L113.92363617636941,58.61194395356215L126.58181797374378,41.067695360183734L139.23999977111816,33.43633920047267L151.89818156849253,32.02020704742455L164.55636336586693,29.423978365865253L177.2145451632413,30.368055588674224L189.87272696061567,31.54816843602009L202.53090875799006,29.03061285636153L215.18909055536443,29.10928595826229L227.84727235273883,28.637247346857805L240.5054541501132,28.7945935506593L253.16363594748756,28.558574244957043L265.82181774486196,28.71592044875854" fill="none"></path></g><g><path style="fill: none;" stroke="rgb(51, 187, 238)" stroke-width="2px" d="M25.316363594748758,163.01198243642045L37.97454539212313,157.42615956379814L50.632727189497515,140.6686419894272L63.29090898687189,131.4638237917012L75.94909078424627,122.33766237704131L88.60727258162065,112.66078924907617L101.26545437899503,96.53267280874586L113.92363617636941,77.65098148305475L126.58181797374378,63.17501650147476L139.23999977111816,48.14832348775491L151.89818156849253,37.76339244268303L164.55636336586693,33.200319894770416L177.2145451632413,30.840110518913377L189.87272696061567,30.28938248677349L202.53090875799006,29.9746900791705L215.18909055536443,28.951939754460795L227.84727235273883,28.873266652560034L240.5054541501132,29.10928595826229L253.16363594748756,28.637247346857805L265.82181774486196,28.71592044875854" fill="none"></path></g><g><path style="fill: none;" stroke="rgb(0, 119, 187)" stroke-width="2px" d="M25.316363594748758,157.74085197140113L37.97454539212313,141.9274279386738L50.632727189497515,133.58801386185604L63.29090898687189,131.1491313840982L75.94909078424627,124.77654485479911L88.60727258162065,116.43713077798134L101.26545437899503,105.50148801960427L113.92363617636941,98.73553598080143L126.58181797374378,84.33824410112219L139.23999977111816,77.72965458495551L151.89818156849253,67.58074284558589L164.55636336586693,58.37590832902525L177.2145451632413,49.17109013129925L189.87272696061567,42.877193022735554L202.53090875799006,38.7861590862274L215.18909055536443,33.43633920047267L227.84727235273883,33.51501230237341L240.5054541501132,31.626841537920825L253.16363594748756,31.54816843602009L265.82181774486196,29.89601697726974" fill="none"></path></g><g><path style="fill: none;" stroke="rgb(0, 119, 187)" stroke-width="2px" d="M25.316363594748758,155.06593386910643L37.97454539212313,136.0268963396138L50.632727189497515,124.30450624339463L63.29090898687189,119.50541438977977L75.94909078424627,97.79145875799247L88.60727258162065,72.4585078011015L101.26545437899503,49.40710943700151L113.92363617636941,34.61645204781851L126.58181797374378,30.28938248677349L139.23999977111816,29.502651467766015L151.89818156849253,28.637247346857805L164.55636336586693,28.873266652560034L177.2145451632413,28.558574244957043L189.87272696061567,28.873266652560034L202.53090875799006,28.637247346857805L215.18909055536443,28.873266652560034L227.84727235273883,28.873266652560034L240.5054541501132,28.873266652560034L253.16363594748756,28.71592044875854L265.82181774486196,28.7945935506593" fill="none"></path></g><g><path style="fill: none;" stroke="rgb(187, 187, 187)" stroke-width="2px" d="M25.316363594748758,154.90858766530494L37.97454539212313,138.22975951166939L50.632727189497515,120.84285712209245L63.29090898687189,98.26349736939694L75.94909078424627,74.0319861579511L88.60727258162065,49.80047494650523L101.26545437899503,36.66196901607259L113.92363617636941,30.60409121321112L126.58181797374378,29.34530526396452L139.23999977111816,28.951939754460795L151.89818156849253,28.873266652560034L164.55636336586693,29.03061285636153L177.2145451632413,28.873266652560034L189.87272696061567,28.951939754460795L202.53090875799006,28.873266652560034L215.18909055536443,29.03061285636153L227.84727235273883,28.951939754460795L240.5054541501132,28.951939754460795L253.16363594748756,29.502651467766015L265.82181774486196,29.89601697726974" fill="none"></path></g><g><path style="fill: none;" stroke="rgb(238, 51, 119)" stroke-width="2px" d="M25.316363594748758,148.92938296434423L37.97454539212313,132.9586127278154L50.632727189497515,119.58408749168052L63.29090898687189,108.96313714090643L75.94909078424627,96.45399970684511L88.60727258162065,87.79989322242434L101.26545437899503,81.19130370625767L113.92363617636941,74.81873349579321L126.58181797374378,66.55797620204153L139.23999977111816,60.814807125617705L151.89818156849253,55.386314137962216L164.55636336586693,49.564455640803004L177.2145451632413,45.55209480619561L189.87272696061567,40.438294226143086L202.53090875799006,37.84206554458379L215.18909055536443,34.14439711757939L227.84727235273883,34.53777894591778L240.5054541501132,36.97666142367558L253.16363594748756,32.02020704742455L265.82181774486196,31.2334760284171" fill="none"></path></g><g><path style="fill: none;" stroke="rgb(0, 153, 136)" stroke-width="2px" d="M25.316363594748758,152.94174379895162L37.97454539212313,132.25055481070868L50.632727189497515,113.6048827907198L63.29090898687189,97.31942014658799L75.94909078424627,80.08986396081255L88.60727258162065,68.52482006839485L101.26545437899503,53.97018198491412L113.92363617636941,42.247791888694934L126.58181797374378,36.89798832177482L139.23999977111816,33.8297047099764L151.89818156849253,30.761437417012615L164.55636336586693,30.997456722714844L177.2145451632413,35.16716376112373L189.87272696061567,30.761437417012615L202.53090875799006,29.502651467766015L215.18909055536443,29.03061285636153L227.84727235273883,28.7945935506593L240.5054541501132,28.558574244957043L253.16363594748756,28.7945935506593L265.82181774486196,29.03061285636153" fill="none"></path></g><g><path style="fill: none;" stroke="rgb(51, 187, 238)" stroke-width="2px" d="M25.316363594748758,163.56271046856034L37.97454539212313,156.71808532785676L50.632727189497515,140.1966033780227L63.29090898687189,129.65432612914938L75.94909078424627,112.66078924907617L88.60727258162065,94.40848273859105L101.26545437899503,75.05475280149545L113.92363617636941,55.30764103606148L126.58181797374378,42.09044568489344L139.23999977111816,32.72828128336593L151.89818156849253,30.997456722714844L164.55636336586693,29.738670773468243L177.2145451632413,29.423978365865253L189.87272696061567,28.951939754460795L202.53090875799006,28.951939754460795L215.18909055536443,28.71592044875854L227.84727235273883,28.873266652560034L240.5054541501132,28.637247346857805L253.16363594748756,28.558574244957043L265.82181774486196,28.873266652560034" fill="none"></path></g><g><path style="fill: none;" stroke="rgb(0, 119, 187)" stroke-width="2px" d="M25.316363594748758,152.39103208564637L37.97454539212313,133.11597525045153L50.632727189497515,117.38122431962495L63.29090898687189,107.62567808975909L75.94909078424627,97.63411255419098L88.60727258162065,90.63214120968588L101.26545437899503,80.40455636841554L113.92363617636941,71.35708437449104L126.58181797374378,65.45655277543108L139.23999977111816,56.72377318910958L151.89818156849253,51.531299507156305L164.55636336586693,43.58525093984227L177.2145451632413,41.30371466588596L189.87272696061567,36.89798832177482L202.53090875799006,34.380416423281616L215.18909055536443,33.43633920047267L227.84727235273883,31.312149130317835L240.5054541501132,31.15480292651634L253.16363594748756,30.91878362081411L265.82181774486196,30.28938248677349" fill="none"></path></g><g><path style="fill: none;" stroke="rgb(238, 51, 119)" stroke-width="2px" d="M25.316363594748758,161.43852039840553L37.97454539212313,151.28960865903593L50.632727189497515,133.43066765805452L63.29090898687189,119.50541438977977L75.94909078424627,98.73553598080143L88.60727258162065,72.4585078011015L101.26545437899503,47.04690006114444L113.92363617636941,35.24583686302449L126.58181797374378,30.761437417012615L139.23999977111816,29.34530526396452L151.89818156849253,29.10928595826229L164.55636336586693,28.7945935506593L177.2145451632413,29.03061285636153L189.87272696061567,28.951939754460795L202.53090875799006,28.7945935506593L215.18909055536443,28.71592044875854L227.84727235273883,28.7945935506593L240.5054541501132,28.558574244957043L253.16363594748756,28.558574244957043L265.82181774486196,28.71592044875854" fill="none"></path></g><g><path style="fill: none;" stroke="rgb(204, 51, 17)" stroke-width="2px" d="M25.316363594748758,154.04318354439673L37.97454539212313,138.46577881737164L50.632727189497515,118.08928223673168L63.29090898687189,98.10615116559545L75.94909078424627,73.7172937503481L88.60727258162065,48.14832348775491L101.26545437899503,35.16716376112373L113.92363617636941,32.256226353126806L126.58181797374378,29.581324569666748L139.23999977111816,29.03061285636153L151.89818156849253,28.873266652560034L164.55636336586693,28.873266652560034L177.2145451632413,28.71592044875854L189.87272696061567,28.951939754460795L202.53090875799006,28.951939754460795L215.18909055536443,28.71592044875854L227.84727235273883,28.951939754460795L240.5054541501132,28.637247346857805L253.16363594748756,28.951939754460795L265.82181774486196,29.502651467766015" fill="none"></path></g><g><path style="fill: none;" stroke="rgb(255, 112, 67)" stroke-width="2px" d="M25.316363594748758,151.05357303449904L37.97454539212313,134.7681103903672L50.632727189497515,130.75574955575982L63.29090898687189,121.23623895043086L75.94909078424627,111.95273133196947L88.60727258162065,102.35453130590508L101.26545437899503,91.34021544562727L113.92363617636941,83.94487859161846L126.58181797374378,74.18933236175259L139.23999977111816,69.07554810053473L151.89818156849253,60.657460921816224L164.55636336586693,54.75692932275625L177.2145451632413,45.70944100999711L189.87272696061567,44.135962653147516L202.53090875799006,39.65156320713561L215.18909055536443,36.03256788203197L227.84727235273883,35.71787547442898L240.5054541501132,34.14439711757939L253.16363594748756,30.525418111310387L265.82181774486196,31.862860843623082" fill="none"></path></g><g><path style="fill: none;" stroke="rgb(255, 112, 67)" stroke-width="2px" d="M25.316363594748758,150.81755372879678L37.97454539212313,117.53857052342644L50.632727189497515,89.37337157927395L63.29090898687189,58.92663636116514L75.94909078424627,40.04492871663936L88.60727258162065,31.46949533411933L101.26545437899503,29.187959060163024L113.92363617636941,29.10928595826229L126.58181797374378,29.03061285636153L139.23999977111816,29.187959060163024L151.89818156849253,28.7945935506593L164.55636336586693,28.873266652560034L177.2145451632413,28.951939754460795L189.87272696061567,28.71592044875854L202.53090875799006,28.71592044875854L215.18909055536443,28.7945935506593L227.84727235273883,28.71592044875854L240.5054541501132,28.637247346857805L253.16363594748756,28.637247346857805L265.82181774486196,28.558574244957043" fill="none"></path></g><g><path style="fill: none;" stroke="rgb(0, 153, 136)" stroke-width="2px" d="M25.316363594748758,147.98530574153526L37.97454539212313,102.19718510210359L50.632727189497515,72.14381539349851L63.29090898687189,50.90191469195034L75.94909078424627,37.76339244268303L88.60727258162065,32.177553251226044L101.26545437899503,30.053363181071234L113.92363617636941,29.65999767156751L126.58181797374378,29.34530526396452L139.23999977111816,29.10928595826229L151.89818156849253,28.873266652560034L164.55636336586693,29.266632162063786L177.2145451632413,29.03061285636153L189.87272696061567,29.10928595826229L202.53090875799006,29.34530526396452L215.18909055536443,28.71592044875854L227.84727235273883,28.71592044875854L240.5054541501132,28.7945935506593L253.16363594748756,28.71592044875854L265.82181774486196,28.873266652560034" fill="none"></path></g><g><path style="fill: none;" stroke="rgb(51, 187, 238)" stroke-width="2px" d="M25.316363594748758,154.90858766530494L37.97454539212313,116.43713077798134L50.632727189497515,91.34021544562727L63.29090898687189,68.8395287948325L75.94909078424627,56.40906446267192L88.60727258162065,45.78811411189784L101.26545437899503,40.438294226143086L113.92363617636941,36.34726028963493L126.58181797374378,33.35766609857191L139.23999977111816,30.91878362081411L151.89818156849253,30.28938248677349L164.55636336586693,29.423978365865253L177.2145451632413,29.03061285636153L189.87272696061567,28.951939754460795L202.53090875799006,29.03061285636153L215.18909055536443,29.187959060163024L227.84727235273883,28.951939754460795L240.5054541501132,28.71592044875854L253.16363594748756,28.71592044875854L265.82181774486196,28.951939754460795" fill="none"></path></g><g><path style="fill: none;" stroke="rgb(238, 51, 119)" stroke-width="2px" d="M25.316363594748758,149.55878409838485L37.97454539212313,121.86562376563683L50.632727189497515,92.67765817793996L63.29090898687189,66.63666562277695L75.94909078424627,46.81088075544221L88.60727258162065,35.63920237252822L101.26545437899503,32.02020704742455L113.92363617636941,29.423978365865253L126.58181797374378,29.65999767156751L139.23999977111816,29.03061285636153L151.89818156849253,29.65999767156751L164.55636336586693,28.7945935506593L177.2145451632413,28.637247346857805L189.87272696061567,28.637247346857805L202.53090875799006,28.637247346857805L215.18909055536443,29.03061285636153L227.84727235273883,28.558574244957043L240.5054541501132,28.71592044875854L253.16363594748756,28.71592044875854L265.82181774486196,28.637247346857805" fill="none"></path></g><g><path style="fill: none;" stroke="rgb(204, 51, 17)" stroke-width="2px" d="M25.316363594748758,157.97687127710338L37.97454539212313,154.8299145634042L50.632727189497515,148.61469055674124L63.29090898687189,139.33119925711452L75.94909078424627,129.4969799253479L88.60727258162065,118.01060913483093L101.26545437899503,98.89289850343758L113.92363617636941,90.23877570018216L126.58181797374378,81.4273230119599L139.23999977111816,67.89543525318888L151.89818156849253,56.881119392911074L164.55636336586693,50.036494252207476L177.2145451632413,44.21463575504825L189.87272696061567,40.67432985067998L202.53090875799006,36.03256788203197L215.18909055536443,34.695125149719274L227.84727235273883,34.380416423281616L240.5054541501132,32.80695438526669L253.16363594748756,32.6496081814652L265.82181774486196,32.256226353126806" fill="none"></path></g><g><path style="fill: none;" stroke="rgb(255, 112, 67)" stroke-width="2px" d="M25.316363594748758,153.64981803489297L37.97454539212313,125.24859978503825L50.632727189497515,104.55739447796066L63.29090898687189,85.04631833706355L75.94909078424627,73.08790893514212L88.60727258162065,61.68021124652593L101.26545437899503,53.73416267921189L113.92363617636941,46.81088075544221L126.58181797374378,42.79851992083482L139.23999977111816,39.33687079953262L151.89818156849253,35.71787547442898L164.55636336586693,34.380416423281616L177.2145451632413,31.54816843602009L189.87272696061567,30.91878362081411L202.53090875799006,29.738670773468243L215.18909055536443,30.28938248677349L227.84727235273883,29.502651467766015L240.5054541501132,29.266632162063786L253.16363594748756,29.03061285636153L265.82181774486196,29.187959060163024" fill="none"></path></g><g><path style="fill: none;" stroke="rgb(51, 187, 238)" stroke-width="2px" d="M25.316363594748758,151.52562796473816L37.97454539212313,114.47028691162801L50.632727189497515,77.25761597355101L63.29090898687189,44.135962653147516L75.94909078424627,33.6723585061749L88.60727258162065,32.02020704742455L101.26545437899503,29.89601697726974L113.92363617636941,29.502651467766015L126.58181797374378,29.266632162063786L139.23999977111816,29.817343875369005L151.89818156849253,30.761437417012615L164.55636336586693,30.91878362081411L177.2145451632413,30.132036282971995L189.87272696061567,29.9746900791705L202.53090875799006,29.03061285636153L215.18909055536443,28.7945935506593L227.84727235273883,28.637247346857805L240.5054541501132,28.558574244957043L253.16363594748756,28.637247346857805L265.82181774486196,28.7945935506593" fill="none"></path></g><g><path style="fill: none;" stroke="rgb(0, 119, 187)" stroke-width="2px" d="M25.316363594748758,147.3559209263293L37.97454539212313,108.80577461827029L50.632727189497515,69.54758671193922L63.29090898687189,43.74259714364376L75.94909078424627,32.96430058906819L88.60727258162065,30.132036282971995L101.26545437899503,28.873266652560034L113.92363617636941,28.558574244957043L126.58181797374378,28.71592044875854L139.23999977111816,28.71592044875854L151.89818156849253,28.637247346857805L164.55636336586693,29.03061285636153L177.2145451632413,28.951939754460795L189.87272696061567,28.873266652560034L202.53090875799006,28.637247346857805L215.18909055536443,28.637247346857805L227.84727235273883,28.558574244957043L240.5054541501132,28.637247346857805L253.16363594748756,28.637247346857805L265.82181774486196,28.71592044875854" fill="none"></path></g><g><path style="fill: none;" stroke="rgb(187, 187, 187)" stroke-width="2px" d="M25.316363594748758,147.3559209263293L37.97454539212313,114.54896001352876L50.632727189497515,87.56387391672212L63.29090898687189,65.06318726592735L75.94909078424627,51.373953303354824L88.60727258162065,41.77575327729045L101.26545437899503,36.03256788203197L113.92363617636941,32.885627487167426L126.58181797374378,31.705514639821587L139.23999977111816,30.28938248677349L151.89818156849253,29.266632162063786L164.55636336586693,28.951939754460795L177.2145451632413,28.873266652560034L189.87272696061567,28.71592044875854L202.53090875799006,29.10928595826229L215.18909055536443,29.03061285636153L227.84727235273883,28.951939754460795L240.5054541501132,28.951939754460795L253.16363594748756,28.7945935506593L265.82181774486196,28.7945935506593" fill="none"></path></g></g></g></g></g></g><g transform="translate(51, 177)" clip-path="url(#clip_1)"><clipPath id="clip_1"><rect width="278" height="22"></rect></clipPath><g><g><line x1="0" y1="0" x2="0" y2="5" style="visibility: inherit;" fill="rgb(0, 0, 0)" stroke="rgb(204, 204, 204)" stroke-width="1px"></line><line x1="25.316363594748758" y1="0" x2="25.316363594748758" y2="5" style="visibility: inherit;" fill="rgb(0, 0, 0)" stroke="rgb(204, 204, 204)" stroke-width="1px"></line><line x1="50.632727189497515" y1="0" x2="50.632727189497515" y2="5" style="visibility: inherit;" fill="rgb(0, 0, 0)" stroke="rgb(204, 204, 204)" stroke-width="1px"></line><line x1="75.94909078424627" y1="0" x2="75.94909078424627" y2="5" style="visibility: inherit;" fill="rgb(0, 0, 0)" stroke="rgb(204, 204, 204)" stroke-width="1px"></line><line x1="101.26545437899503" y1="0" x2="101.26545437899503" y2="5" style="visibility: inherit;" fill="rgb(0, 0, 0)" stroke="rgb(204, 204, 204)" stroke-width="1px"></line><line x1="126.58181797374378" y1="0" x2="126.58181797374378" y2="5" style="visibility: inherit;" fill="rgb(0, 0, 0)" stroke="rgb(204, 204, 204)" stroke-width="1px"></line><line x1="151.89818156849253" y1="0" x2="151.89818156849253" y2="5" style="visibility: inherit;" fill="rgb(0, 0, 0)" stroke="rgb(204, 204, 204)" stroke-width="1px"></line><line x1="177.2145451632413" y1="0" x2="177.2145451632413" y2="5" style="visibility: inherit;" fill="rgb(0, 0, 0)" stroke="rgb(204, 204, 204)" stroke-width="1px"></line><line x1="202.53090875799006" y1="0" x2="202.53090875799006" y2="5" style="visibility: inherit;" fill="rgb(0, 0, 0)" stroke="rgb(204, 204, 204)" stroke-width="1px"></line><line x1="227.84727235273883" y1="0" x2="227.84727235273883" y2="5" style="visibility: inherit;" fill="rgb(0, 0, 0)" stroke="rgb(204, 204, 204)" stroke-width="1px"></line><line x1="253.16363594748756" y1="0" x2="253.16363594748756" y2="5" style="visibility: inherit;" fill="rgb(0, 0, 0)" stroke="rgb(204, 204, 204)" stroke-width="1px"></line><line x1="278.4799995422363" y1="0" x2="278.4799995422363" y2="5" style="visibility: inherit;" fill="rgb(0, 0, 0)" stroke="rgb(204, 204, 204)" stroke-width="1px"></line></g><g transform="translate(0, 8)"><text style="text-anchor: middle; visibility: hidden; font-family: &quot;Helvetica Neue&quot;, sans-serif; font-size: 12px; font-weight: 200;" x="0" y="0" dx="0em" dy="0.95em" fill="rgb(50, 49, 63)" stroke="none" stroke-width="1px">-2</text><text style="text-anchor: middle; visibility: hidden; font-family: &quot;Helvetica Neue&quot;, sans-serif; font-size: 12px; font-weight: 200;" x="25.316363594748758" y="0" dx="0em" dy="0.95em" fill="rgb(50, 49, 63)" stroke="none" stroke-width="1px">0</text><text style="text-anchor: middle; visibility: hidden; font-family: &quot;Helvetica Neue&quot;, sans-serif; font-size: 12px; font-weight: 200;" x="50.632727189497515" y="0" dx="0em" dy="0.95em" fill="rgb(50, 49, 63)" stroke="none" stroke-width="1px">2</text><text style="text-anchor: middle; visibility: hidden; font-family: &quot;Helvetica Neue&quot;, sans-serif; font-size: 12px; font-weight: 200;" x="75.94909078424627" y="0" dx="0em" dy="0.95em" fill="rgb(50, 49, 63)" stroke="none" stroke-width="1px">4</text><text style="text-anchor: middle; visibility: hidden; font-family: &quot;Helvetica Neue&quot;, sans-serif; font-size: 12px; font-weight: 200;" x="101.26545437899503" y="0" dx="0em" dy="0.95em" fill="rgb(50, 49, 63)" stroke="none" stroke-width="1px">6</text><text style="text-anchor: middle; visibility: hidden; font-family: &quot;Helvetica Neue&quot;, sans-serif; font-size: 12px; font-weight: 200;" x="126.58181797374378" y="0" dx="0em" dy="0.95em" fill="rgb(50, 49, 63)" stroke="none" stroke-width="1px">8</text><text style="text-anchor: middle; visibility: hidden; font-family: &quot;Helvetica Neue&quot;, sans-serif; font-size: 12px; font-weight: 200;" x="151.89818156849253" y="0" dx="0em" dy="0.95em" fill="rgb(50, 49, 63)" stroke="none" stroke-width="1px">10</text><text style="text-anchor: middle; visibility: hidden; font-family: &quot;Helvetica Neue&quot;, sans-serif; font-size: 12px; font-weight: 200;" x="177.2145451632413" y="0" dx="0em" dy="0.95em" fill="rgb(50, 49, 63)" stroke="none" stroke-width="1px">12</text><text style="text-anchor: middle; visibility: hidden; font-family: &quot;Helvetica Neue&quot;, sans-serif; font-size: 12px; font-weight: 200;" x="202.53090875799006" y="0" dx="0em" dy="0.95em" fill="rgb(50, 49, 63)" stroke="none" stroke-width="1px">14</text><text style="text-anchor: middle; visibility: hidden; font-family: &quot;Helvetica Neue&quot;, sans-serif; font-size: 12px; font-weight: 200;" x="227.84727235273883" y="0" dx="0em" dy="0.95em" fill="rgb(50, 49, 63)" stroke="none" stroke-width="1px">16</text><text style="text-anchor: middle; visibility: hidden; font-family: &quot;Helvetica Neue&quot;, sans-serif; font-size: 12px; font-weight: 200;" x="253.16363594748756" y="0" dx="0em" dy="0.95em" fill="rgb(50, 49, 63)" stroke="none" stroke-width="1px">18</text><text style="text-anchor: middle; visibility: hidden; font-family: &quot;Helvetica Neue&quot;, sans-serif; font-size: 12px; font-weight: 200;" x="278.4799995422363" y="0" dx="0em" dy="0.95em" fill="rgb(50, 49, 63)" stroke="none" stroke-width="1px">20</text></g><line x1="0" y1="0" x2="278.4799995422363" y2="0" fill="rgb(0, 0, 0)" stroke="rgb(204, 204, 204)" stroke-width="1px"></line></g></g></g></g></svg>